999
dxfrw 0.6.3
  0
SECTION
  2
HEADER
  9
$ACADVER
  1
AC1021
  9
$DWGCODEPAGE
  3
ANSI_1252
  9
$INSBASE
 10
0
 20
0
 30
0
  9
$EXTMIN
 10
-708.0380000000034
 20
0.1588389041282952
 30
0
  9
$EXTMAX
 10
-415.4310000000016
 20
103.2702004689264
 30
0
  9
$LIMMIN
 10
0
 20
0
  9
$LIMMAX
 10
324.6015098227893
 20
115.2745334031467
  9
$ORTHOMODE
 70
    0
  9
$REGENMODE
 70
    1
  9
$FILLMODE
 70
    1
  9
$QTEXTMODE
 70
    0
  9
$MIRRTEXT
 70
    0
  9
$LTSCALE
 40
1
  9
$ATTMODE
 70
    1
  9
$TEXTSIZE
 40
0.2
  9
$TRACEWID
 40
0.05
  9
$TEXTSTYLE
  7
Standard
  9
$CLAYER
  8
0
  9
$CELTYPE
  6
ByLayer
  9
$CECOLOR
 62
  256
  9
$CELTSCALE
 40
1
  9
$DISPSILH
 70
    0
  9
$DIMSCALE
 40
1
  9
$DIMASZ
 40
0.18
  9
$DIMEXO
 40
0.0625
  9
$DIMDLI
 40
0.38
  9
$DIMRND
 40
0
  9
$DIMDLE
 40
0
  9
$DIMEXE
 40
0.18
  9
$DIMTP
 40
0
  9
$DIMTM
 40
0
  9
$DIMTXT
 40
0.18
  9
$DIMCEN
 40
0.09
  9
$DIMTSZ
 40
0
  9
$DIMTOL
 70
    0
  9
$DIMLIM
 70
    0
  9
$DIMTIH
 70
    1
  9
$DIMTOH
 70
    1
  9
$DIMSE1
 70
    0
  9
$DIMSE2
 70
    0
  9
$DIMTAD
 70
    0
  9
$DIMZIN
 70
    0
  9
$DIMBLK
  1

  9
$DIMASO
 70
    1
  9
$DIMSHO
 70
    1
  9
$DIMPOST
  1

  9
$DIMAPOST
  1

  9
$DIMALT
 70
    0
  9
$DIMALTD
 70
    2
  9
$DIMALTF
 40
25.4
  9
$DIMLFAC
 40
1
  9
$DIMTOFL
 70
    0
  9
$DIMTVP
 40
0
  9
$DIMTIX
 70
    0
  9
$DIMSOXD
 70
    0
  9
$DIMSAH
 70
    0
  9
$DIMBLK1
  1

  9
$DIMBLK2
  1

  9
$DIMSTYLE
  2
Standard
  9
$DIMCLRD
 70
    0
  9
$DIMCLRE
 70
    0
  9
$DIMCLRT
 70
    0
  9
$DIMTFAC
 40
1
  9
$DIMGAP
 40
0.09
  9
$DIMJUST
 70
    0
  9
$DIMSD1
 70
    0
  9
$DIMSD2
 70
    0
  9
$DIMTOLJ
 70
    1
  9
$DIMTZIN
 70
    0
  9
$DIMALTZ
 70
    0
  9
$DIMALTTZ
 70
    0
  9
$DIMUPT
 70
    0
  9
$DIMDEC
 70
    4
  9
$DIMTDEC
 70
    4
  9
$DIMALTU
 70
    2
  9
$DIMALTTD
 70
    2
  9
$DIMTXSTY
  7
Standard
  9
$DIMAUNIT
 70
    0
  9
$DIMADEC
 70
    0
  9
$DIMALTRND
 40
0
  9
$DIMAZIN
 70
    0
  9
$DIMDSEP
 70
   46
  9
$DIMATFIT
 70
    3
  9
$DIMFRAC
 70
    0
  9
$DIMLDRBLK
  1

  9
$DIMLUNIT
 70
    2
  9
$DIMLWD
 70
   -2
  9
$DIMLWE
 70
   -2
  9
$DIMTMOVE
 70
    0
  9
$DIMFXL
 40
1
  9
$DIMFXLON
 70
    0
  9
$DIMJOGANG
 40
0.7854
  9
$DIMTFILL
 70
    0
  9
$DIMTFILLCLR
 70
    0
  9
$DIMARCSYM
 70
    0
  9
$DIMLTYPE
  6

  9
$DIMLTEX1
  6

  9
$DIMLTEX2
  6

  9
$LUNITS
 70
    2
  9
$LUPREC
 70
    4
  9
$SKETCHINC
 40
0.1
  9
$FILLETRAD
 40
0
  9
$AUNITS
 70
    0
  9
$AUPREC
 70
    0
  9
$MENU
  1
.
  9
$ELEVATION
 40
0
  9
$PELEVATION
 40
0
  9
$THICKNESS
 40
0
  9
$LIMCHECK
 70
    0
  9
$CHAMFERA
 40
0
  9
$CHAMFERB
 40
0
  9
$CHAMFERC
 40
0
  9
$CHAMFERD
 40
0
  9
$SKPOLY
 70
    0
  9
$USRTIMER
 70
    1
  9
$ANGBASE
 50
0
  9
$ANGDIR
 70
    0
  9
$PDMODE
 70
    0
  9
$PDSIZE
 40
0
  9
$PLINEWID
 40
0
  9
$SPLFRAME
 70
    0
  9
$SPLINETYPE
 70
    6
  9
$SPLINESEGS
 70
    8
  9
$HANDSEED
  5
20000
  9
$SURFTAB1
 70
    6
  9
$SURFTAB2
 70
    6
  9
$SURFTYPE
 70
    6
  9
$SURFU
 70
    6
  9
$SURFV
 70
    6
  9
$UCSBASE
  2

  9
$UCSNAME
  2

  9
$UCSORG
 10
0
 20
0
 30
0
  9
$UCSXDIR
 10
1
 20
0
 30
0
  9
$UCSYDIR
 10
0
 20
1
 30
0
  9
$UCSORTHOREF
  2

  9
$UCSORTHOVIEW
 70
    0
  9
$UCSORGTOP
 10
0
 20
0
 30
0
  9
$UCSORGBOTTOM
 10
0
 20
0
 30
0
  9
$UCSORGLEFT
 10
0
 20
0
 30
0
  9
$UCSORGRIGHT
 10
0
 20
0
 30
0
  9
$UCSORGFRONT
 10
0
 20
0
 30
0
  9
$UCSORGBACK
 10
0
 20
0
 30
0
  9
$PUCSBASE
  2

  9
$PUCSNAME
  2

  9
$PUCSORG
 10
0
 20
0
 30
0
  9
$PUCSXDIR
 10
1
 20
0
 30
0
  9
$PUCSYDIR
 10
0
 20
1
 30
0
  9
$PUCSORTHOREF
  2

  9
$PUCSORTHOVIEW
 70
    0
  9
$PUCSORGTOP
 10
0
 20
0
 30
0
  9
$PUCSORGBOTTOM
 10
0
 20
0
 30
0
  9
$PUCSORGLEFT
 10
0
 20
0
 30
0
  9
$PUCSORGRIGHT
 10
0
 20
0
 30
0
  9
$PUCSORGFRONT
 10
0
 20
0
 30
0
  9
$PUCSORGBACK
 10
0
 20
0
 30
0
  9
$USERI1
 70
    0
  9
$USERI2
 70
    0
  9
$USERI3
 70
    0
  9
$USERI4
 70
    0
  9
$USERI5
 70
    0
  9
$USERR1
 40
0
  9
$USERR2
 40
0
  9
$USERR3
 40
0
  9
$USERR4
 40
0
  9
$USERR5
 40
0
  9
$WORLDVIEW
 70
    1
  9
$SHADEDGE
 70
    3
  9
$SHADEDIF
 70
   70
  9
$TILEMODE
 70
    1
  9
$MAXACTVP
 70
   64
  9
$PINSBASE
 10
0
 20
0
 30
0
  9
$PLIMCHECK
 70
    0
  9
$PEXTMIN
 10
0
 20
0
 30
0
  9
$PEXTMAX
 10
324.6015098227893
 20
115.2745334031467
 30
0
  9
$GRIDMODE
 70
    0
  9
$SNAPSTYLE
 70
    0
  9
$PLIMMIN
 10
0
 20
0
  9
$PLIMMAX
 10
324.6015098227893
 20
115.2745334031467
  9
$UNITMODE
 70
    0
  9
$VISRETAIN
 70
    1
  9
$PLINEGEN
 70
    0
  9
$PSLTSCALE
 70
    1
  9
$TREEDEPTH
 70
 3020
  9
$CMLSTYLE
  2
Standard
  9
$CMLJUST
 70
    0
  9
$CMLSCALE
 40
1
  9
$PROXYGRAPHICS
 70
    1
  9
$MEASUREMENT
 70
    1
  9
$CELWEIGHT
370
   -1
  9
$ENDCAPS
280
    0
  9
$JOINSTYLE
280
    0
  9
$LWDISPLAY
290
    0
  9
$INSUNITS
 70
    4
  9
$HYPERLINKBASE
  1

  9
$STYLESHEET
  1

  9
$XEDIT
290
    1
  9
$CEPSNTYPE
380
    0
  9
$PSTYLEMODE
290
    1
  9
$EXTNAMES
290
    1
  9
$PSVPSCALE
 40
0
  9
$OLESTARTUP
290
    0
  9
$SORTENTS
280
  127
  9
$INDEXCTL
280
    0
  9
$HIDETEXT
280
    1
  9
$XCLIPFRAME
290
    0
  9
$HALOGAP
280
    0
  9
$OBSCOLOR
 70
  257
  9
$OBSLTYPE
280
    0
  9
$INTERSECTIONDISPLAY
280
    0
  9
$INTERSECTIONCOLOR
 70
  257
  9
$DIMASSOC
280
    1
  9
$PROJECTNAME
  1

  9
$CAMERADISPLAY
290
    0
  9
$LENSLENGTH
 40
50
  9
$CAMERAHEIGHT
 40
0
  9
$STEPSPERSEC
 40
2
  9
$STEPSIZE
 40
50
  9
$3DDWFPREC
 40
2
  9
$PSOLWIDTH
 40
5
  9
$PSOLHEIGHT
 40
80
  9
$LOFTANG1
 40
1.570796326794897
  9
$LOFTANG2
 40
1.570796326794897
  9
$LOFTMAG1
 40
0
  9
$LOFTMAG2
 40
0
  9
$LOFTPARAM
 70
    7
  9
$LOFTNORMALS
280
    1
  9
$LATITUDE
 40
1
  9
$LONGITUDE
 40
1
  9
$NORTHDIRECTION
 40
0
  9
$TIMEZONE
 70
-8000
  9
$LIGHTGLYPHDISPLAY
280
    1
  9
$TILEMODELIGHTSYNCH
280
    1
  9
$SOLIDHIST
280
    1
  9
$SHOWHIST
280
    1
  9
$DWFFRAME
280
    2
  9
$DGNFRAME
280
    0
  9
$REALWORLDSCALE
290
    1
  9
$INTERFERECOLOR
 62
    1
  9
$CSHADOW
280
    0
  9
$SHADOWPLANELOCATION
 40
0
  0
ENDSEC
  0
SECTION
  2
CLASSES
  0
ENDSEC
  0
SECTION
  2
TABLES
  0
TABLE
  2
VPORT
  5
8
330
0
100
AcDbSymbolTable
 70
    1
  0
VPORT
  5
31
330
2
100
AcDbSymbolTableRecord
100
AcDbViewportTableRecord
  2
*ACTIVE
 70
    0
 10
0
 20
0
 11
1
 21
1
 12
-166.5737182019691
 22
89.83146697436653
 13
0
 23
0
 14
10
 24
10
 15
10
 25
10
 16
0
 26
0
 36
1
 17
0
 27
0
 37
0
 40
239.5505785983108
 41
1.82185628742515
 42
50
 43
0
 44
0
 50
0
 51
0
 71
    0
 72
  100
 73
    1
 74
    3
 75
    0
 76
    0
 77
    0
 78
    0
281
    0
 65
    1
110
0
120
0
130
0
111
1
121
0
131
0
112
0
122
1
132
0
 79
    0
146
0
348
10020
 60
    7
 61
    5
292
1
282
    1
141
0
142
0
 63
  250
421
3358443
  0
ENDTAB
  0
TABLE
  2
LTYPE
  5
5
330
0
100
AcDbSymbolTable
 70
    4
  0
LTYPE
  5
14
330
5
100
AcDbSymbolTableRecord
100
AcDbLinetypeTableRecord
  2
ByBlock
 70
    0
  3

 72
   65
 73
    0
 40
0
  0
LTYPE
  5
15
330
5
100
AcDbSymbolTableRecord
100
AcDbLinetypeTableRecord
  2
ByLayer
 70
    0
  3

 72
   65
 73
    0
 40
0
  0
LTYPE
  5
16
330
5
100
AcDbSymbolTableRecord
100
AcDbLinetypeTableRecord
  2
Continuous
 70
    0
  3
Solid line
 72
   65
 73
    0
 40
0
  0
LTYPE
  5
32
330
5
100
AcDbSymbolTableRecord
100
AcDbLinetypeTableRecord
  2
DOT
 70
    0
  3
Dot . . . . . . . . . . . . . . . . . . . . . .
 72
   65
 73
    2
 40
6.35
 49
0
 74
    0
 49
-6.35
 74
    0
  0
LTYPE
  5
33
330
5
100
AcDbSymbolTableRecord
100
AcDbLinetypeTableRecord
  2
DOTTINY
 70
    0
  3
Dot (.15x) .....................................
 72
   65
 73
    2
 40
0.9525
 49
0
 74
    0
 49
-0.9525
 74
    0
  0
LTYPE
  5
34
330
5
100
AcDbSymbolTableRecord
100
AcDbLinetypeTableRecord
  2
DOT2
 70
    0
  3
Dot (.5x) .....................................
 72
   65
 73
    2
 40
3.175
 49
0
 74
    0
 49
-3.175
 74
    0
  0
LTYPE
  5
35
330
5
100
AcDbSymbolTableRecord
100
AcDbLinetypeTableRecord
  2
DOTX2
 70
    0
  3
Dot (2x) .  .  .  .  .  .  .  .  .  .  .  .  .
 72
   65
 73
    2
 40
12.7
 49
0
 74
    0
 49
-12.7
 74
    0
  0
LTYPE
  5
36
330
5
100
AcDbSymbolTableRecord
100
AcDbLinetypeTableRecord
  2
DASHED
 70
    0
  3
Dashed _ _ _ _ _ _ _ _ _ _ _ _ _ _ _ _ _
 72
   65
 73
    2
 40
19.05
 49
12.7
 74
    0
 49
-6.35
 74
    0
  0
LTYPE
  5
37
330
5
100
AcDbSymbolTableRecord
100
AcDbLinetypeTableRecord
  2
DASHEDTINY
 70
    0
  3
Dashed (.15x) _ _ _ _ _ _ _ _ _ _ _ _ _ _ _ _ _
 72
   65
 73
    2
 40
2.8575
 49
1.905
 74
    0
 49
-0.9525
 74
    0
  0
LTYPE
  5
38
330
5
100
AcDbSymbolTableRecord
100
AcDbLinetypeTableRecord
  2
DASHED2
 70
    0
  3
Dashed (.5x) _ _ _ _ _ _ _ _ _ _ _ _ _ _ _ _ _
 72
   65
 73
    2
 40
9.524999999999999
 49
6.35
 74
    0
 49
-3.175
 74
    0
  0
LTYPE
  5
39
330
5
100
AcDbSymbolTableRecord
100
AcDbLinetypeTableRecord
  2
DASHEDX2
 70
    0
  3
Dashed (2x) ____  ____  ____  ____  ____  ___
 72
   65
 73
    2
 40
38.09999999999999
 49
25.4
 74
    0
 49
-12.7
 74
    0
  0
LTYPE
  5
3A
330
5
100
AcDbSymbolTableRecord
100
AcDbLinetypeTableRecord
  2
DASHDOT
 70
    0
  3
Dash dot __ . __ . __ . __ . __ . __ . __ . __
 72
   65
 73
    4
 40
25.4
 49
12.7
 74
    0
 49
-6.35
 74
    0
 49
0
 74
    0
 49
-6.35
 74
    0
  0
LTYPE
  5
3B
330
5
100
AcDbSymbolTableRecord
100
AcDbLinetypeTableRecord
  2
DASHDOTTINY
 70
    0
  3
Dash dot (.15x) _._._._._._._._._._._._._._._.
 72
   65
 73
    4
 40
3.81
 49
1.905
 74
    0
 49
-0.9525
 74
    0
 49
0
 74
    0
 49
-0.9525
 74
    0
  0
LTYPE
  5
3C
330
5
100
AcDbSymbolTableRecord
100
AcDbLinetypeTableRecord
  2
DASHDOT2
 70
    0
  3
Dash dot (.5x) _._._._._._._._._._._._._._._.
 72
   65
 73
    4
 40
12.7
 49
6.35
 74
    0
 49
-3.175
 74
    0
 49
0
 74
    0
 49
-3.175
 74
    0
  0
LTYPE
  5
3D
330
5
100
AcDbSymbolTableRecord
100
AcDbLinetypeTableRecord
  2
DASHDOTX2
 70
    0
  3
Dash dot (2x) ____  .  ____  .  ____  .  ___
 72
   65
 73
    4
 40
50.8
 49
25.4
 74
    0
 49
-12.7
 74
    0
 49
0
 74
    0
 49
-12.7
 74
    0
  0
LTYPE
  5
3E
330
5
100
AcDbSymbolTableRecord
100
AcDbLinetypeTableRecord
  2
DIVIDE
 70
    0
  3
Divide ____ . . ____ . . ____ . . ____ . . ____
 72
   65
 73
    6
 40
31.75
 49
12.7
 74
    0
 49
-6.35
 74
    0
 49
0
 74
    0
 49
-6.35
 74
    0
 49
0
 74
    0
 49
-6.35
 74
    0
  0
LTYPE
  5
3F
330
5
100
AcDbSymbolTableRecord
100
AcDbLinetypeTableRecord
  2
DIVIDETINY
 70
    0
  3
Divide (.15x) __..__..__..__..__..__..__..__.._
 72
   65
 73
    6
 40
4.7625
 49
1.905
 74
    0
 49
-0.9525
 74
    0
 49
0
 74
    0
 49
-0.9525
 74
    0
 49
0
 74
    0
 49
-0.9525
 74
    0
  0
LTYPE
  5
40
330
5
100
AcDbSymbolTableRecord
100
AcDbLinetypeTableRecord
  2
DIVIDE2
 70
    0
  3
Divide (.5x) __..__..__..__..__..__..__..__.._
 72
   65
 73
    6
 40
15.875
 49
6.35
 74
    0
 49
-3.175
 74
    0
 49
0
 74
    0
 49
-3.175
 74
    0
 49
0
 74
    0
 49
-3.175
 74
    0
  0
LTYPE
  5
41
330
5
100
AcDbSymbolTableRecord
100
AcDbLinetypeTableRecord
  2
DIVIDEX2
 70
    0
  3
Divide (2x) ________  .  .  ________  .  .  _
 72
   65
 73
    6
 40
63.5
 49
25.4
 74
    0
 49
-12.7
 74
    0
 49
0
 74
    0
 49
-12.7
 74
    0
 49
0
 74
    0
 49
-12.7
 74
    0
  0
LTYPE
  5
42
330
5
100
AcDbSymbolTableRecord
100
AcDbLinetypeTableRecord
  2
BORDER
 70
    0
  3
Border __ __ . __ __ . __ __ . __ __ . __ __ .
 72
   65
 73
    6
 40
44.45
 49
12.7
 74
    0
 49
-6.35
 74
    0
 49
12.7
 74
    0
 49
-6.35
 74
    0
 49
0
 74
    0
 49
-6.35
 74
    0
  0
LTYPE
  5
43
330
5
100
AcDbSymbolTableRecord
100
AcDbLinetypeTableRecord
  2
BORDERTINY
 70
    0
  3
Border (.15x) __.__.__.__.__.__.__.__.__.__.__.
 72
   65
 73
    6
 40
6.6675
 49
1.905
 74
    0
 49
-0.9525
 74
    0
 49
1.905
 74
    0
 49
-0.9525
 74
    0
 49
0
 74
    0
 49
-0.9525
 74
    0
  0
LTYPE
  5
44
330
5
100
AcDbSymbolTableRecord
100
AcDbLinetypeTableRecord
  2
BORDER2
 70
    0
  3
Border (.5x) __.__.__.__.__.__.__.__.__.__.__.
 72
   65
 73
    6
 40
22.225
 49
6.35
 74
    0
 49
-3.175
 74
    0
 49
6.35
 74
    0
 49
-3.175
 74
    0
 49
0
 74
    0
 49
-3.175
 74
    0
  0
LTYPE
  5
45
330
5
100
AcDbSymbolTableRecord
100
AcDbLinetypeTableRecord
  2
BORDERX2
 70
    0
  3
Border (2x) ____  ____  .  ____  ____  .  ___
 72
   65
 73
    6
 40
88.89999999999999
 49
25.4
 74
    0
 49
-12.7
 74
    0
 49
25.4
 74
    0
 49
-12.7
 74
    0
 49
0
 74
    0
 49
-12.7
 74
    0
  0
LTYPE
  5
46
330
5
100
AcDbSymbolTableRecord
100
AcDbLinetypeTableRecord
  2
CENTER
 70
    0
  3
Center ____ _ ____ _ ____ _ ____ _ ____ _ ____
 72
   65
 73
    4
 40
50.8
 49
31.75
 74
    0
 49
-6.35
 74
    0
 49
6.35
 74
    0
 49
-6.35
 74
    0
  0
LTYPE
  5
47
330
5
100
AcDbSymbolTableRecord
100
AcDbLinetypeTableRecord
  2
CENTERTINY
 70
    0
  3
Center (.15x) ___ _ ___ _ ___ _ ___ _ ___ _ ___
 72
   65
 73
    4
 40
7.62
 49
4.7625
 74
    0
 49
-0.9525
 74
    0
 49
0.9525
 74
    0
 49
-0.9525
 74
    0
  0
LTYPE
  5
48
330
5
100
AcDbSymbolTableRecord
100
AcDbLinetypeTableRecord
  2
CENTER2
 70
    0
  3
Center (.5x) ___ _ ___ _ ___ _ ___ _ ___ _ ___
 72
   65
 73
    4
 40
28.575
 49
19.05
 74
    0
 49
-3.175
 74
    0
 49
3.175
 74
    0
 49
-3.175
 74
    0
  0
LTYPE
  5
49
330
5
100
AcDbSymbolTableRecord
100
AcDbLinetypeTableRecord
  2
CENTERX2
 70
    0
  3
Center (2x) ________  __  ________  __  _____
 72
   65
 73
    4
 40
101.6
 49
63.5
 74
    0
 49
-12.7
 74
    0
 49
12.7
 74
    0
 49
-12.7
 74
    0
  0
ENDTAB
  0
TABLE
  2
LAYER
  5
2
330
0
100
AcDbSymbolTable
 70
    1
  0
LAYER
  5
10
330
2
100
AcDbSymbolTableRecord
100
AcDbLayerTableRecord
  2
0
 70
    0
 62
    7
  6
CONTINUOUS
370
   -3
390
F
  0
ENDTAB
  0
TABLE
  2
STYLE
  5
3
330
0
100
AcDbSymbolTable
 70
    3
  0
STYLE
  5
4A
330
2
100
AcDbSymbolTableRecord
100
AcDbTextStyleTableRecord
  2
Standard
 70
    0
 40
0
 41
1
 50
0
 71
    0
 42
1
  3
txt
  4

  0
ENDTAB
  0
TABLE
  2
VIEW
  5
6
330
0
100
AcDbSymbolTable
 70
    0
  0
ENDTAB
  0
TABLE
  2
UCS
  5
7
330
0
100
AcDbSymbolTable
 70
    0
  0
ENDTAB
  0
TABLE
  2
APPID
  5
9
330
0
100
AcDbSymbolTable
 70
    1
  0
APPID
  5
12
330
9
100
AcDbSymbolTableRecord
100
AcDbRegAppTableRecord
  2
ACAD
 70
    0
  0
APPID
  5
4B
330
9
100
AcDbSymbolTableRecord
100
AcDbRegAppTableRecord
  2
LibreCad
 70
    0
  0
ENDTAB
  0
TABLE
  2
DIMSTYLE
  5
A
330
0
100
AcDbSymbolTable
 70
    1
100
AcDbDimStyleTable
 71
    1
  0
DIMSTYLE
105
4C
330
A
100
AcDbSymbolTableRecord
100
AcDbDimStyleTableRecord
  2
Standard
 70
    0
 40
1
 41
0.18
 42
0.0625
 43
0.38
 44
0.18
 45
0
 46
0
 47
0
 48
0
 49
1
140
0.18
141
0.09
142
0
143
25.4
144
1
145
0
146
1
147
0.09
148
0
 71
    0
 72
    0
 73
    1
 74
    1
 75
    0
 76
    0
 77
    0
 78
    0
 79
    0
170
    0
171
    2
172
    0
173
    0
174
    0
175
    0
176
    0
177
    0
178
    0
179
    0
271
    4
272
    4
273
    2
274
    2
275
    0
276
    0
277
    2
278
   46
279
    0
280
    0
281
    0
282
    0
283
    1
284
    0
285
    0
286
    0
288
    0
289
    3
340
Standard
341

371
   -2
372
   -2
  0
ENDTAB
  0
TABLE
  2
BLOCK_RECORD
  5
1
330
0
100
AcDbSymbolTable
 70
    2
  0
BLOCK_RECORD
  5
1F
330
1
100
AcDbSymbolTableRecord
100
AcDbBlockTableRecord
  2
*Model_Space
 70
    0
280
    1
281
    0
  0
BLOCK_RECORD
  5
1E
330
1
100
AcDbSymbolTableRecord
100
AcDbBlockTableRecord
  2
*Paper_Space
 70
    0
280
    1
281
    0
  0
BLOCK_RECORD
  5
4D
330
1
100
AcDbSymbolTableRecord
100
AcDbBlockTableRecord
  2
Prime_E_switchplate_NoDogBones
 70
    0
280
    1
281
    0
  0
BLOCK_RECORD
  5
50
330
1
100
AcDbSymbolTableRecord
100
AcDbBlockTableRecord
  2
Prime_E_switchplate_NoDogBones-0
 70
    0
280
    1
281
    0
  0
BLOCK_RECORD
  5
53
330
1
100
AcDbSymbolTableRecord
100
AcDbBlockTableRecord
  2
Prime_E_switchplate_NoDogBones-1
 70
    0
280
    1
281
    0
  0
BLOCK_RECORD
  5
56
330
1
100
AcDbSymbolTableRecord
100
AcDbBlockTableRecord
  2
Prime_E_switchplate_NoDogBones-2
 70
    0
280
    1
281
    0
  0
ENDTAB
  0
ENDSEC
  0
SECTION
  2
BLOCKS
  0
BLOCK
  5
20
330
1F
100
AcDbEntity
  8
0
100
AcDbBlockBegin
  2
*Model_Space
 70
    0
 10
0
 20
0
 30
0
  3
*Model_Space
  1

  0
ENDBLK
  5
21
330
1F
100
AcDbEntity
  8
0
100
AcDbBlockEnd
  0
BLOCK
  5
1C
330
1B
100
AcDbEntity
  8
0
100
AcDbBlockBegin
  2
*Paper_Space
 70
    0
 10
0
 20
0
 30
0
  3
*Paper_Space
  1

  0
ENDBLK
  5
1D
330
1F
100
AcDbEntity
  8
0
100
AcDbBlockEnd
  0
BLOCK
  5
4E
330
4D
100
AcDbEntity
  8
0
100
AcDbBlockBegin
  2
Prime_E_switchplate_NoDogBones
 70
    0
 10
0
 20
0
  3
Prime_E_switchplate_NoDogBones
  1

  0
LWPOLYLINE
  5
59
100
AcDbEntity
  8
0
  6
ByLayer
 62
  256
370
   -1
100
AcDbPolyline
 90
   16
 70
    1
 43
0
 10
99.9526195573944
 20
-71.3535561933552
 42
0.2035250169844448
 10
101.0162721008522
 20
-71.99283180723567
 10
117.7078830413131
 20
-74.33829093076596
 42
0.2034921336373637
 10
118.9063668882016
 20
-74.01703016080856
 42
-0.2035662600604114
 10
120.1052983088585
 20
-73.69583234765652
 10
122.1024875576209
 20
-73.97705174539445
 42
-0.2034284027755154
 10
123.1656119482117
 20
-74.61615344516744
 42
0.2035513896748217
 10
124.2294789522891
 20
-75.25535953168102
 10
125.726999998367
 20
-75.46550046869682
 10
123.778999998367
 20
-89.32860046869681
 10
91.04999999836708
 20
-84.7301004686968
 10
92.99899999836703
 20
-70.86560046869681
 10
94.49587682924567
 20
-71.07636235241998
 42
0.2036481167468608
 10
95.69519939386493
 20
-70.75484948765562
 42
-0.2036639689103302
 10
96.89461766652236
 20
-70.43335010165823
 10
98.88950027612027
 20
-70.71435560424077
 42
-0.2034367003182966
  0
LWPOLYLINE
  5
5A
100
AcDbEntity
  8
0
  6
ByLayer
 62
  256
370
   -1
100
AcDbPolyline
 90
   16
 70
    1
 43
0
 10
180.5590009916761
 20
-70.53321962099807
 10
182.507651435414
 20
-84.39622820709208
 10
149.7789990083245
 20
-88.99720131685427
 10
147.830923933984
 20
-75.13257132703015
 10
149.3279081433809
 20
-74.92257348116999
 42
0.2036481167468649
 10
150.3921500299191
 20
-74.28293737903726
 42
-0.2036639689103517
 10
151.4564876321802
 20
-73.64328785281637
 10
153.4515474863823
 20
-73.36354351112195
 42
-0.2034367003182869
 10
154.6496708899047
 20
-73.68494716585042
 42
0.2035250169844441
 10
155.8483275775664
 20
-74.00627595203443
 10
172.5398299691236
 20
-71.66004446291826
 42
0.2034921336373489
 10
173.6033351151794
 20
-71.02088187180483
 42
-0.2035662600604165
 10
174.6672878500025
 20
-70.3816564306069
 10
176.6646239455749
 20
-70.10148190221229
 42
-0.2034284027754926
 10
177.862725002891
 20
-70.42278909008611
 42
0.203551389674807
 10
179.0615686789919
 20
-70.74399192891734
  0
LWPOLYLINE
  5
5B
100
AcDbEntity
  8
0
  6
ByLayer
 62
  256
370
   -1
100
AcDbPolyline
 90
    4
 70
    1
 43
0
 10
8.00200000000002
 20
-65.18540046892613
 10
22.00200000000001
 20
-65.18540046892613
 10
22.00200000000001
 20
-79.18480046892614
 10
8.00200000000002
 20
-79.18480046892614
  0
LWPOLYLINE
  5
5C
100
AcDbEntity
  8
0
  6
ByLayer
 62
  256
370
   -1
100
AcDbPolyline
 90
    4
 70
    1
 43
0
 10
31.81400000000002
 20
-65.18540046892613
 10
45.813
 20
-65.18540046892613
 10
45.813
 20
-79.18480046892614
 10
31.81400000000002
 20
-79.18480046892614
  0
LWPOLYLINE
  5
5D
100
AcDbEntity
  8
0
  6
ByLayer
 62
  256
370
   -1
100
AcDbPolyline
 90
    4
 70
    1
 43
0
 10
83.69000000000005
 20
-83.69510046892616
 10
69.827
 20
-81.74660046892615
 10
71.77600000000004
 20
-67.88350046892616
 10
85.64000000000004
 20
-69.83210046892616
  0
LWPOLYLINE
  5
5E
100
AcDbEntity
  8
0
  6
ByLayer
 62
  256
370
   -1
100
AcDbPolyline
 90
    4
 70
    1
 43
0
 10
10.66900000000002
 20
-45.94520046892614
 10
24.66900000000001
 20
-45.94520046892614
 10
24.66900000000001
 20
-59.94590046892614
 10
10.66900000000002
 20
-59.94590046892614
  0
LWPOLYLINE
  5
5F
100
AcDbEntity
  8
0
  6
ByLayer
 62
  256
370
   -1
100
AcDbPolyline
 90
    4
 70
    1
 43
0
 10
36.86300000000005
 20
-45.94520046892614
 10
50.86300000000003
 20
-45.94520046892614
 10
50.86300000000003
 20
-59.94590046892614
 10
36.86300000000005
 20
-59.94590046892614
  0
LWPOLYLINE
  5
60
100
AcDbEntity
  8
0
  6
ByLayer
 62
  256
370
   -1
100
AcDbPolyline
 90
    4
 70
    1
 43
0
 10
57.92100000000004
 20
-46.69910046892614
 10
71.78500000000005
 20
-48.64750046892615
 10
69.83500000000005
 20
-62.51060046892615
 10
55.97200000000002
 20
-60.56190046892615
  0
LWPOLYLINE
  5
61
100
AcDbEntity
  8
0
  6
ByLayer
 62
  256
370
   -1
100
AcDbPolyline
 90
    4
 70
    1
 43
0
 10
95.65000000000003
 20
-52.00170046892615
 10
109.513
 20
-53.95010046892616
 10
107.565
 20
-67.81330046892617
 10
93.70200000000003
 20
-65.86470046892616
  0
LWPOLYLINE
  5
62
100
AcDbEntity
  8
0
  6
ByLayer
 62
  256
370
   -1
100
AcDbPolyline
 90
    4
 70
    1
 43
0
 10
22.86000000000001
 20
-40.70580046892614
 10
8.858000000000033
 20
-40.70580046892614
 10
8.858000000000033
 20
-26.70370046892614
 10
22.86000000000001
 20
-26.70370046892614
  0
LWPOLYLINE
  5
63
100
AcDbEntity
  8
0
  6
ByLayer
 62
  256
370
   -1
100
AcDbPolyline
 90
    4
 70
    1
 43
0
 10
30.19500000000002
 20
-26.70370046892614
 10
44.19400000000002
 20
-26.70370046892614
 10
44.19400000000002
 20
-40.70580046892614
 10
30.19500000000002
 20
-40.70580046892614
  0
LWPOLYLINE
  5
64
100
AcDbEntity
  8
0
  6
ByLayer
 62
  256
370
   -1
100
AcDbPolyline
 90
    4
 70
    1
 43
0
 10
51.14000000000006
 20
-26.50930046892614
 10
65.00300000000001
 20
-28.45660046892616
 10
63.05500000000003
 20
-42.32080046892614
 10
49.19100000000002
 20
-40.37240046892615
  0
LWPOLYLINE
  5
65
100
AcDbEntity
  8
0
  6
ByLayer
 62
  256
370
   -1
100
AcDbPolyline
 90
    4
 70
    1
 43
0
 10
70.00300000000001
 20
-29.16080046892616
 10
83.86800000000002
 20
-31.10780046892615
 10
81.91900000000003
 20
-44.97230046892616
 10
68.05600000000004
 20
-43.02390046892615
  0
LWPOLYLINE
  5
66
100
AcDbEntity
  8
0
  6
ByLayer
 62
  256
370
   -1
100
AcDbPolyline
 90
    4
 70
    1
 43
0
 10
119.649
 20
-50.27350046892616
 10
105.784
 20
-48.32650046892617
 10
107.734
 20
-34.46200046892617
 10
121.597
 20
-36.41040046892616
  0
LWPOLYLINE
  5
67
100
AcDbEntity
  8
0
  6
ByLayer
 62
  256
370
   -1
100
AcDbPolyline
 90
    4
 70
    1
 43
0
 10
9.050000000000011
 20
-7.463500468926138
 10
23.05000000000001
 20
-7.463500468926156
 10
23.05000000000001
 20
-21.46560046892616
 10
9.050000000000011
 20
-21.46560046892616
  0
LWPOLYLINE
  5
68
100
AcDbEntity
  8
0
  6
ByLayer
 62
  256
370
   -1
100
AcDbPolyline
 90
    4
 70
    1
 43
0
 10
28.10000000000002
 20
-7.463500468926156
 10
42.10000000000002
 20
-7.463500468926156
 10
42.10000000000002
 20
-21.46560046892616
 10
28.10000000000002
 20
-21.46560046892616
  0
LWPOLYLINE
  5
69
100
AcDbEntity
  8
0
  6
ByLayer
 62
  256
370
   -1
100
AcDbPolyline
 90
    4
 70
    1
 43
0
 10
49.075
 20
-6.981300468926168
 10
62.93800000000003
 20
-8.929700468926161
 10
60.99000000000005
 20
-22.79280046892615
 10
47.12500000000004
 20
-20.84550046892616
  0
LWPOLYLINE
  5
6A
100
AcDbEntity
  8
0
  6
ByLayer
 62
  256
370
   -1
100
AcDbPolyline
 90
    4
 70
    1
 43
0
 10
86.80372657482349
 20
-12.28311898385936
 10
100.6680639396574
 20
-14.22911692683598
 10
98.72246584074398
 20
-28.09255422238083
 10
84.85912847589501
 20
-26.14655610614775
  0
LWPOLYLINE
  5
6B
100
AcDbEntity
  8
0
  6
ByLayer
 62
  256
370
   -1
100
AcDbPolyline
 90
    4
 70
    1
 43
0
 10
206.0890000000001
 20
-81.08261046892616
 10
192.2250000000002
 20
-83.03111046892617
 10
190.2760000000001
 20
-69.16811046892617
 10
204.1410000000001
 20
-67.21821046892617
  0
LWPOLYLINE
  5
6C
100
AcDbEntity
  8
0
  6
ByLayer
 62
  256
370
   -1
100
AcDbPolyline
 90
    4
 70
    1
 43
0
 10
248.7930000000001
 20
-79.3366104689262
 10
234.7910000000001
 20
-79.3366104689262
 10
234.7910000000001
 20
-65.33721046892617
 10
248.7930000000001
 20
-65.33721046892617
  0
LWPOLYLINE
  5
6D
100
AcDbEntity
  8
0
  6
ByLayer
 62
  256
370
   -1
100
AcDbPolyline
 90
    4
 70
    1
 43
0
 10
272.602
 20
-79.33661046892621
 10
258.603
 20
-79.33661046892621
 10
258.603
 20
-65.33721046892617
 10
272.602
 20
-65.33721046892617
  0
LWPOLYLINE
  5
6E
100
AcDbEntity
  8
0
  6
ByLayer
 62
  256
370
   -1
100
AcDbPolyline
 90
    4
 70
    1
 43
0
 10
161.6859999999999
 20
-53.94921046892619
 10
175.551
 20
-51.9990104689262
 10
177.4989999999999
 20
-65.86361046892618
 10
163.635
 20
-67.81211046892616
  0
LWPOLYLINE
  5
6F
100
AcDbEntity
  8
0
  6
ByLayer
 62
  256
370
   -1
100
AcDbPolyline
 90
    4
 70
    1
 43
0
 10
199.4150000000001
 20
-48.64621046892624
 10
213.2800000000001
 20
-46.69781046892623
 10
215.2270000000001
 20
-60.56091046892618
 10
201.3640000000001
 20
-62.50931046892618
  0
LWPOLYLINE
  5
70
100
AcDbEntity
  8
0
  6
ByLayer
 62
  256
370
   -1
100
AcDbPolyline
 90
    4
 70
    1
 43
0
 10
220.2180000000001
 20
-46.09701046892623
 10
234.2190000000002
 20
-46.09701046892623
 10
234.2190000000002
 20
-60.09771046892616
 10
220.2180000000001
 20
-60.09771046892616
  0
LWPOLYLINE
  5
71
100
AcDbEntity
  8
0
  6
ByLayer
 62
  256
370
   -1
100
AcDbPolyline
 90
    4
 70
    1
 43
0
 10
239.2680000000001
 20
-46.09701046892621
 10
253.2690000000002
 20
-46.09701046892623
 10
253.2690000000002
 20
-60.09771046892616
 10
239.2680000000001
 20
-60.09771046892616
  0
LWPOLYLINE
  5
72
100
AcDbEntity
  8
0
  6
ByLayer
 62
  256
370
   -1
100
AcDbPolyline
 90
    4
 70
    1
 43
0
 10
184.279
 20
-45.67411046892623
 10
170.416
 20
-47.62251046892624
 10
168.468
 20
-33.75791046892623
 10
182.332
 20
-31.80951046892623
  0
LWPOLYLINE
  5
73
100
AcDbEntity
  8
0
  6
ByLayer
 62
  256
370
   -1
100
AcDbPolyline
 90
    4
 70
    1
 43
0
 10
203.1450000000002
 20
-43.02121046892624
 10
189.281
 20
-44.97101046892623
 10
187.3330000000001
 20
-31.10681046892623
 10
201.1960000000001
 20
-29.15811046892623
  0
LWPOLYLINE
  5
74
100
AcDbEntity
  8
0
  6
ByLayer
 62
  256
370
   -1
100
AcDbPolyline
 90
    4
 70
    1
 43
0
 10
222.0080000000001
 20
-40.37111046892625
 10
208.1460000000002
 20
-42.31991046892623
 10
206.197
 20
-28.45531046892622
 10
220.0610000000001
 20
-26.50691046892623
  0
LWPOLYLINE
  5
75
100
AcDbEntity
  8
0
  6
ByLayer
 62
  256
370
   -1
100
AcDbPolyline
 90
    4
 70
    1
 43
0
 10
241.0770000000002
 20
-40.85761046892623
 10
227.0760000000001
 20
-40.85761046892623
 10
227.0760000000001
 20
-26.85551046892624
 10
241.0770000000002
 20
-26.85551046892624
  0
LWPOLYLINE
  5
76
100
AcDbEntity
  8
0
  6
ByLayer
 62
  256
370
   -1
100
AcDbPolyline
 90
    4
 70
    1
 43
0
 10
253.2690000000002
 20
-26.85551046892624
 10
267.2710000000001
 20
-26.85551046892624
 10
267.2710000000001
 20
-40.85761046892623
 10
253.2690000000002
 20
-40.85761046892623
  0
LWPOLYLINE
  5
77
100
AcDbEntity
  8
0
  6
ByLayer
 62
  256
370
   -1
100
AcDbPolyline
 90
    4
 70
    1
 43
0
 10
142.2349999999999
 20
-18.20821046892618
 10
156.1
 20
-16.25841046892617
 10
158.048
 20
-30.12291046892633
 10
144.1839999999998
 20
-32.07131046892623
  0
LWPOLYLINE
  5
78
100
AcDbEntity
  8
0
  6
ByLayer
 62
  256
370
   -1
100
AcDbPolyline
 90
    4
 70
    1
 43
0
 10
179.963688087165
 20
-12.90679438099754
 10
193.8286029528378
 20
-10.96591866945584
 10
195.7690783820778
 20
-24.83143334683142
 10
181.9051635633521
 20
-26.7722095289607
  0
LWPOLYLINE
  5
79
100
AcDbEntity
  8
0
  6
ByLayer
 62
  256
370
   -1
100
AcDbPolyline
 90
    4
 70
    1
 43
0
 10
198.8361007864058
 20
-10.2532476470191
 10
212.6966679115777
 20
-8.280574960382125
 10
214.6689390229403
 20
-22.14024278732827
 10
200.8093718962353
 20
-24.11291372297899
  0
LWPOLYLINE
  5
7A
100
AcDbEntity
  8
0
  6
ByLayer
 62
  256
370
   -1
100
AcDbPolyline
 90
    4
 70
    1
 43
0
 10
219.6460000000001
 20
-7.615310468926139
 10
233.6480000000001
 20
-7.615310468926139
 10
233.6480000000001
 20
-21.61741046892625
 10
219.6460000000001
 20
-21.61741046892624
  0
LWPOLYLINE
  5
7B
100
AcDbEntity
  8
0
  6
ByLayer
 62
  256
370
   -1
100
AcDbPolyline
 90
    4
 70
    1
 43
0
 10
238.6960000000001
 20
-7.615310468926139
 10
252.6960000000001
 20
-7.615310468926139
 10
252.6960000000001
 20
-21.61601046892625
 10
238.6960000000001
 20
-21.61601046892625
  0
LWPOLYLINE
  5
7C
100
AcDbEntity
  8
0
  6
ByLayer
 62
  256
370
   -1
100
AcDbPolyline
 90
    4
 70
    1
 43
0
 10
257.7480000000002
 20
-7.615310468926139
 10
271.7480000000001
 20
-7.615310468926139
 10
271.7480000000001
 20
-21.61601046892625
 10
257.7480000000002
 20
-21.61601046892625
  0
LWPOLYLINE
  5
7D
100
AcDbEntity
  8
0
  6
ByLayer
 62
  256
370
   -1
100
AcDbPolyline
 90
    4
 70
    1
 43
0
 10
161.101
 20
-15.55671046892619
 10
174.964
 20
-13.6083104689262
 10
176.912
 20
-27.47141046892624
 10
163.049
 20
-29.41981046892623
  0
LWPOLYLINE
  5
7E
100
AcDbEntity
  8
0
  6
ByLayer
 62
  256
370
   -1
100
AcDbPolyline
 90
    4
 70
    1
 43
0
 10
158.635
 20
-68.51491046892617
 10
144.771
 20
-70.46341046892618
 10
142.822
 20
-56.60031046892619
 10
156.685
 20
-54.65051046892619
  0
LWPOLYLINE
  5
7F
100
AcDbEntity
  8
0
  6
ByLayer
 62
  256
370
   -1
100
AcDbPolyline
 90
    4
 70
    1
 43
0
 10
126.43
 20
-70.46460046892616
 10
112.566
 20
-68.51610046892615
 10
114.514
 20
-54.65140046892615
 10
128.377
 20
-56.60160046892617
  0
LWPOLYLINE
  5
80
100
AcDbEntity
  8
0
  6
ByLayer
 62
  256
370
   -1
100
AcDbPolyline
 90
    4
 70
    1
 43
0
 10
149.602
 20
-36.40941046892623
 10
163.467
 20
-34.46071046892625
 10
165.4150000000001
 20
-48.32521046892622
 10
151.552
 20
-50.27251046892622
  0
LWPOLYLINE
  5
81
100
AcDbEntity
  8
0
  6
ByLayer
 62
  256
370
   -1
100
AcDbPolyline
 90
    4
 70
    1
 43
0
 10
260.6990000000001
 20
-46.09701046892623
 10
274.7009999999998
 20
-46.09701046892623
 10
274.7009999999999
 20
-60.09771046892616
 10
260.6990000000001
 20
-60.09771046892616
  0
LWPOLYLINE
  5
82
100
AcDbEntity
  8
0
  6
ByLayer
 62
  256
370
   -1
100
AcDbPolyline
 90
    4
 70
    1
 43
0
 10
196.3630000000001
 20
-63.21211046892618
 10
182.5
 20
-65.16081046892617
 10
180.552
 20
-51.29631046892621
 10
194.4150000000001
 20
-49.34931046892623
  0
LWPOLYLINE
  5
83
100
AcDbEntity
  8
0
  6
ByLayer
 62
  256
370
   -1
100
AcDbPolyline
 90
    4
 70
    1
 43
0
 10
117.5970739837496
 20
-30.73616026837193
 10
103.731804134695
 20
-28.79782212117018
 10
105.6707419549713
 20
-14.93205188006555
 10
119.5360118040258
 20
-16.87039002726733
  0
LWPOLYLINE
  5
84
100
AcDbEntity
  8
0
  6
ByLayer
 62
  256
370
   -1
100
AcDbPolyline
 90
    4
 70
    1
 43
0
 10
79.85620643496668
 20
-25.44458635000809
 10
65.99108459983127
 20
-23.49565291429241
 10
67.93921815429825
 20
-9.632431129153165
 10
81.80233992693771
 20
-11.58036468987051
  0
LWPOLYLINE
  5
85
100
AcDbEntity
  8
0
  6
ByLayer
 62
  256
370
   -1
100
AcDbPolyline
 90
    4
 70
    1
 43
0
 10
100.783
 20
-47.62380046892616
 10
86.92000000000004
 20
-45.67500046892615
 10
88.86900000000001
 20
-31.81050046892616
 10
102.733
 20
-33.75920046892615
  0
LWPOLYLINE
  5
86
100
AcDbEntity
  8
0
  6
ByLayer
 62
  256
370
   -1
100
AcDbPolyline
 90
    4
 70
    1
 43
0
 10
88.70100000000002
 20
-65.16190046892616
 10
74.83600000000001
 20
-63.21340046892615
 10
76.78500000000005
 20
-49.35030046892615
 10
90.64899999999999
 20
-51.29760046892616
  0
CIRCLE
  5
87
100
AcDbEntity
  8
0
  6
ByLayer
 62
  256
370
   -1
100
AcDbCircle
 10
279.9989999999997
 20
-20.29399999999999
 40
1.499999999999988
  0
CIRCLE
  5
88
100
AcDbEntity
  8
0
  6
ByLayer
 62
  256
370
   -1
100
AcDbCircle
 10
279.9989999999997
 20
-8.793999999999986
 40
1.499999999999992
  0
CIRCLE
  5
89
100
AcDbEntity
  8
0
  6
ByLayer
 62
  256
370
   -1
100
AcDbCircle
 10
279.9989999999997
 20
-14.54399999999998
 40
1.499999999999997
  0
ARC
  5
8A
100
AcDbEntity
  8
0
  6
ByLayer
 62
  256
370
   -1
100
AcDbCircle
 10
-5.273559366969494e-016
 20
-2.999999999999988
 40
6.000000000000011
100
AcDbArc
 50
90
 51
180
  0
ARC
  5
8B
100
AcDbEntity
  8
0
  6
ByLayer
 62
  256
370
   -1
100
AcDbCircle
 10
280.6069999999997
 20
-2.999999999999989
 40
6
100
AcDbArc
 50
0
 51
90
  0
LINE
  5
8C
100
AcDbEntity
  8
0
  6
ByLayer
 62
  256
370
   -1
100
AcDbLine
 10
0
 20
3.000000000000024
 11
280.6069999999997
 21
3.000000000000011
  0
ARC
  5
8D
100
AcDbEntity
  8
0
  6
ByLayer
 62
  256
370
   -1
100
AcDbCircle
 10
3.436140261214859e-014
 20
-83.64830046892614
 40
6
100
AcDbArc
 50
180
 51
270
  0
LINE
  5
8E
100
AcDbEntity
  8
0
  6
ByLayer
 62
  256
370
   -1
100
AcDbLine
 10
-6.000000000000012
 20
-2.999999999999988
 11
-5.999999999999966
 21
-83.64829996797722
  0
ARC
  5
8F
100
AcDbEntity
  8
0
  6
ByLayer
 62
  256
370
   -1
100
AcDbCircle
 10
280.6069999999997
 20
-83.64830046892614
 40
6
100
AcDbArc
 50
270
 51
0
  0
LINE
  5
90
100
AcDbEntity
  8
0
  6
ByLayer
 62
  256
370
   -1
100
AcDbLine
 10
286.6069999999997
 20
-3.000002685498
 11
286.6069999999997
 21
-83.64830046892614
  0
LINE
  5
91
100
AcDbEntity
  8
0
  6
ByLayer
 62
  256
370
   -1
100
AcDbLine
 10
125.3229269152793
 20
-100.1118004689262
 11
50.85084003912448
 21
-89.64830046892621
  0
LINE
  5
92
100
AcDbEntity
  8
0
  6
ByLayer
 62
  256
370
   -1
100
AcDbLine
 10
4.221623051137158e-014
 20
-89.64830046892621
 11
50.85084003912448
 21
-89.64830046892621
  0
LINE
  5
93
100
AcDbEntity
  8
0
  6
ByLayer
 62
  256
370
   -1
100
AcDbLine
 10
4.221623051137158e-014
 20
-89.64830046892614
 11
50.85084003912448
 21
-89.64830046892614
  0
CIRCLE
  5
94
100
AcDbEntity
  8
0
  6
ByLayer
 62
  256
370
   -1
100
AcDbCircle
 10
3.436140261214859e-014
 20
-83.64830046892614
 40
1.5
  0
CIRCLE
  5
95
100
AcDbEntity
  8
0
  6
ByLayer
 62
  256
370
   -1
100
AcDbCircle
 10
-5.273559366969494e-016
 20
-2.999999999999988
 40
1.5
  0
CIRCLE
  5
96
100
AcDbEntity
  8
0
  6
ByLayer
 62
  256
370
   -1
100
AcDbCircle
 10
280.6069999999997
 20
-2.999999999999989
 40
1.5
  0
CIRCLE
  5
97
100
AcDbEntity
  8
0
  6
ByLayer
 62
  256
370
   -1
100
AcDbCircle
 10
280.6069999999997
 20
-83.64830046892614
 40
1.5
  0
LINE
  5
98
100
AcDbEntity
  8
0
  6
ByLayer
 62
  256
370
   -1
100
AcDbLine
 10
125.3229269152793
 20
-100.1118004689262
 11
145.8793353488189
 21
-100.1118004689262
  0
LINE
  5
99
100
AcDbEntity
  8
0
  6
ByLayer
 62
  256
370
   -1
100
AcDbLine
 10
220.3106016268679
 20
-89.64830046892614
 11
145.8793353488189
 21
-100.1118004689262
  0
LINE
  5
9A
100
AcDbEntity
  8
0
  6
ByLayer
 62
  256
370
   -1
100
AcDbLine
 10
220.3106016268679
 20
-89.64830046892614
 11
280.6069999999997
 21
-89.64830046892614
  0
ENDBLK
  5
4F
330
4D
100
AcDbEntity
  8
0
100
AcDbBlockEnd
  0
BLOCK
  5
51
330
50
100
AcDbEntity
  8
0
100
AcDbBlockBegin
  2
Prime_E_switchplate_NoDogBones-0
 70
    0
 10
0
 20
0
  3
Prime_E_switchplate_NoDogBones-0
  1

  0
LWPOLYLINE
  5
9B
100
AcDbEntity
  8
0
  6
ByLayer
 62
  256
370
   -1
100
AcDbPolyline
 90
   16
 70
    1
 43
0
 10
99.9526195573944
 20
-71.3535561933552
 42
0.2035250169844448
 10
101.0162721008522
 20
-71.99283180723567
 10
117.7078830413131
 20
-74.33829093076596
 42
0.2034921336373637
 10
118.9063668882016
 20
-74.01703016080856
 42
-0.2035662600604114
 10
120.1052983088585
 20
-73.69583234765652
 10
122.1024875576209
 20
-73.97705174539445
 42
-0.2034284027755154
 10
123.1656119482117
 20
-74.61615344516744
 42
0.2035513896748217
 10
124.2294789522891
 20
-75.25535953168102
 10
125.726999998367
 20
-75.46550046869682
 10
123.778999998367
 20
-89.32860046869681
 10
91.04999999836708
 20
-84.7301004686968
 10
92.99899999836703
 20
-70.86560046869681
 10
94.49587682924567
 20
-71.07636235241998
 42
0.2036481167468608
 10
95.69519939386493
 20
-70.75484948765562
 42
-0.2036639689103302
 10
96.89461766652236
 20
-70.43335010165823
 10
98.88950027612027
 20
-70.71435560424077
 42
-0.2034367003182966
  0
LWPOLYLINE
  5
9C
100
AcDbEntity
  8
0
  6
ByLayer
 62
  256
370
   -1
100
AcDbPolyline
 90
   16
 70
    1
 43
0
 10
180.5590009916761
 20
-70.53321962099807
 10
182.507651435414
 20
-84.39622820709208
 10
149.7789990083245
 20
-88.99720131685427
 10
147.830923933984
 20
-75.13257132703015
 10
149.3279081433809
 20
-74.92257348116999
 42
0.2036481167468649
 10
150.3921500299191
 20
-74.28293737903726
 42
-0.2036639689103517
 10
151.4564876321802
 20
-73.64328785281637
 10
153.4515474863823
 20
-73.36354351112195
 42
-0.2034367003182869
 10
154.6496708899047
 20
-73.68494716585042
 42
0.2035250169844441
 10
155.8483275775664
 20
-74.00627595203443
 10
172.5398299691236
 20
-71.66004446291826
 42
0.2034921336373489
 10
173.6033351151794
 20
-71.02088187180483
 42
-0.2035662600604165
 10
174.6672878500025
 20
-70.3816564306069
 10
176.6646239455749
 20
-70.10148190221229
 42
-0.2034284027754926
 10
177.862725002891
 20
-70.42278909008611
 42
0.203551389674807
 10
179.0615686789919
 20
-70.74399192891734
  0
LWPOLYLINE
  5
9D
100
AcDbEntity
  8
0
  6
ByLayer
 62
  256
370
   -1
100
AcDbPolyline
 90
    4
 70
    1
 43
0
 10
8.00200000000002
 20
-65.18540046892613
 10
22.00200000000001
 20
-65.18540046892613
 10
22.00200000000001
 20
-79.18480046892614
 10
8.00200000000002
 20
-79.18480046892614
  0
LWPOLYLINE
  5
9E
100
AcDbEntity
  8
0
  6
ByLayer
 62
  256
370
   -1
100
AcDbPolyline
 90
    4
 70
    1
 43
0
 10
31.81400000000002
 20
-65.18540046892613
 10
45.813
 20
-65.18540046892613
 10
45.813
 20
-79.18480046892614
 10
31.81400000000002
 20
-79.18480046892614
  0
LWPOLYLINE
  5
9F
100
AcDbEntity
  8
0
  6
ByLayer
 62
  256
370
   -1
100
AcDbPolyline
 90
    4
 70
    1
 43
0
 10
83.69000000000005
 20
-83.69510046892616
 10
69.827
 20
-81.74660046892615
 10
71.77600000000004
 20
-67.88350046892616
 10
85.64000000000004
 20
-69.83210046892616
  0
LWPOLYLINE
  5
A0
100
AcDbEntity
  8
0
  6
ByLayer
 62
  256
370
   -1
100
AcDbPolyline
 90
    4
 70
    1
 43
0
 10
10.66900000000002
 20
-45.94520046892614
 10
24.66900000000001
 20
-45.94520046892614
 10
24.66900000000001
 20
-59.94590046892614
 10
10.66900000000002
 20
-59.94590046892614
  0
LWPOLYLINE
  5
A1
100
AcDbEntity
  8
0
  6
ByLayer
 62
  256
370
   -1
100
AcDbPolyline
 90
    4
 70
    1
 43
0
 10
36.86300000000005
 20
-45.94520046892614
 10
50.86300000000003
 20
-45.94520046892614
 10
50.86300000000003
 20
-59.94590046892614
 10
36.86300000000005
 20
-59.94590046892614
  0
LWPOLYLINE
  5
A2
100
AcDbEntity
  8
0
  6
ByLayer
 62
  256
370
   -1
100
AcDbPolyline
 90
    4
 70
    1
 43
0
 10
57.92100000000004
 20
-46.69910046892614
 10
71.78500000000005
 20
-48.64750046892615
 10
69.83500000000005
 20
-62.51060046892615
 10
55.97200000000002
 20
-60.56190046892615
  0
LWPOLYLINE
  5
A3
100
AcDbEntity
  8
0
  6
ByLayer
 62
  256
370
   -1
100
AcDbPolyline
 90
    4
 70
    1
 43
0
 10
95.65000000000003
 20
-52.00170046892615
 10
109.513
 20
-53.95010046892616
 10
107.565
 20
-67.81330046892617
 10
93.70200000000003
 20
-65.86470046892616
  0
LWPOLYLINE
  5
A4
100
AcDbEntity
  8
0
  6
ByLayer
 62
  256
370
   -1
100
AcDbPolyline
 90
    4
 70
    1
 43
0
 10
22.86000000000001
 20
-40.70580046892614
 10
8.858000000000033
 20
-40.70580046892614
 10
8.858000000000033
 20
-26.70370046892614
 10
22.86000000000001
 20
-26.70370046892614
  0
LWPOLYLINE
  5
A5
100
AcDbEntity
  8
0
  6
ByLayer
 62
  256
370
   -1
100
AcDbPolyline
 90
    4
 70
    1
 43
0
 10
30.19500000000002
 20
-26.70370046892614
 10
44.19400000000002
 20
-26.70370046892614
 10
44.19400000000002
 20
-40.70580046892614
 10
30.19500000000002
 20
-40.70580046892614
  0
LWPOLYLINE
  5
A6
100
AcDbEntity
  8
0
  6
ByLayer
 62
  256
370
   -1
100
AcDbPolyline
 90
    4
 70
    1
 43
0
 10
51.14000000000006
 20
-26.50930046892614
 10
65.00300000000001
 20
-28.45660046892616
 10
63.05500000000003
 20
-42.32080046892614
 10
49.19100000000002
 20
-40.37240046892615
  0
LWPOLYLINE
  5
A7
100
AcDbEntity
  8
0
  6
ByLayer
 62
  256
370
   -1
100
AcDbPolyline
 90
    4
 70
    1
 43
0
 10
70.00300000000001
 20
-29.16080046892616
 10
83.86800000000002
 20
-31.10780046892615
 10
81.91900000000003
 20
-44.97230046892616
 10
68.05600000000004
 20
-43.02390046892615
  0
LWPOLYLINE
  5
A8
100
AcDbEntity
  8
0
  6
ByLayer
 62
  256
370
   -1
100
AcDbPolyline
 90
    4
 70
    1
 43
0
 10
119.649
 20
-50.27350046892616
 10
105.784
 20
-48.32650046892617
 10
107.734
 20
-34.46200046892617
 10
121.597
 20
-36.41040046892616
  0
LWPOLYLINE
  5
A9
100
AcDbEntity
  8
0
  6
ByLayer
 62
  256
370
   -1
100
AcDbPolyline
 90
    4
 70
    1
 43
0
 10
9.050000000000011
 20
-7.463500468926138
 10
23.05000000000001
 20
-7.463500468926156
 10
23.05000000000001
 20
-21.46560046892616
 10
9.050000000000011
 20
-21.46560046892616
  0
LWPOLYLINE
  5
AA
100
AcDbEntity
  8
0
  6
ByLayer
 62
  256
370
   -1
100
AcDbPolyline
 90
    4
 70
    1
 43
0
 10
28.10000000000002
 20
-7.463500468926156
 10
42.10000000000002
 20
-7.463500468926156
 10
42.10000000000002
 20
-21.46560046892616
 10
28.10000000000002
 20
-21.46560046892616
  0
LWPOLYLINE
  5
AB
100
AcDbEntity
  8
0
  6
ByLayer
 62
  256
370
   -1
100
AcDbPolyline
 90
    4
 70
    1
 43
0
 10
49.075
 20
-6.981300468926168
 10
62.93800000000003
 20
-8.929700468926161
 10
60.99000000000005
 20
-22.79280046892615
 10
47.12500000000004
 20
-20.84550046892616
  0
LWPOLYLINE
  5
AC
100
AcDbEntity
  8
0
  6
ByLayer
 62
  256
370
   -1
100
AcDbPolyline
 90
    4
 70
    1
 43
0
 10
86.80372657482349
 20
-12.28311898385936
 10
100.6680639396574
 20
-14.22911692683598
 10
98.72246584074398
 20
-28.09255422238083
 10
84.85912847589501
 20
-26.14655610614775
  0
LWPOLYLINE
  5
AD
100
AcDbEntity
  8
0
  6
ByLayer
 62
  256
370
   -1
100
AcDbPolyline
 90
    4
 70
    1
 43
0
 10
206.0890000000001
 20
-81.08261046892616
 10
192.2250000000002
 20
-83.03111046892617
 10
190.2760000000001
 20
-69.16811046892617
 10
204.1410000000001
 20
-67.21821046892617
  0
LWPOLYLINE
  5
AE
100
AcDbEntity
  8
0
  6
ByLayer
 62
  256
370
   -1
100
AcDbPolyline
 90
    4
 70
    1
 43
0
 10
248.7930000000001
 20
-79.3366104689262
 10
234.7910000000001
 20
-79.3366104689262
 10
234.7910000000001
 20
-65.33721046892617
 10
248.7930000000001
 20
-65.33721046892617
  0
LWPOLYLINE
  5
AF
100
AcDbEntity
  8
0
  6
ByLayer
 62
  256
370
   -1
100
AcDbPolyline
 90
    4
 70
    1
 43
0
 10
272.602
 20
-79.33661046892621
 10
258.603
 20
-79.33661046892621
 10
258.603
 20
-65.33721046892617
 10
272.602
 20
-65.33721046892617
  0
LWPOLYLINE
  5
B0
100
AcDbEntity
  8
0
  6
ByLayer
 62
  256
370
   -1
100
AcDbPolyline
 90
    4
 70
    1
 43
0
 10
161.6859999999999
 20
-53.94921046892619
 10
175.551
 20
-51.9990104689262
 10
177.4989999999999
 20
-65.86361046892618
 10
163.635
 20
-67.81211046892616
  0
LWPOLYLINE
  5
B1
100
AcDbEntity
  8
0
  6
ByLayer
 62
  256
370
   -1
100
AcDbPolyline
 90
    4
 70
    1
 43
0
 10
199.4150000000001
 20
-48.64621046892624
 10
213.2800000000001
 20
-46.69781046892623
 10
215.2270000000001
 20
-60.56091046892618
 10
201.3640000000001
 20
-62.50931046892618
  0
LWPOLYLINE
  5
B2
100
AcDbEntity
  8
0
  6
ByLayer
 62
  256
370
   -1
100
AcDbPolyline
 90
    4
 70
    1
 43
0
 10
220.2180000000001
 20
-46.09701046892623
 10
234.2190000000002
 20
-46.09701046892623
 10
234.2190000000002
 20
-60.09771046892616
 10
220.2180000000001
 20
-60.09771046892616
  0
LWPOLYLINE
  5
B3
100
AcDbEntity
  8
0
  6
ByLayer
 62
  256
370
   -1
100
AcDbPolyline
 90
    4
 70
    1
 43
0
 10
239.2680000000001
 20
-46.09701046892621
 10
253.2690000000002
 20
-46.09701046892623
 10
253.2690000000002
 20
-60.09771046892616
 10
239.2680000000001
 20
-60.09771046892616
  0
LWPOLYLINE
  5
B4
100
AcDbEntity
  8
0
  6
ByLayer
 62
  256
370
   -1
100
AcDbPolyline
 90
    4
 70
    1
 43
0
 10
184.279
 20
-45.67411046892623
 10
170.416
 20
-47.62251046892624
 10
168.468
 20
-33.75791046892623
 10
182.332
 20
-31.80951046892623
  0
LWPOLYLINE
  5
B5
100
AcDbEntity
  8
0
  6
ByLayer
 62
  256
370
   -1
100
AcDbPolyline
 90
    4
 70
    1
 43
0
 10
203.1450000000002
 20
-43.02121046892624
 10
189.281
 20
-44.97101046892623
 10
187.3330000000001
 20
-31.10681046892623
 10
201.1960000000001
 20
-29.15811046892623
  0
LWPOLYLINE
  5
B6
100
AcDbEntity
  8
0
  6
ByLayer
 62
  256
370
   -1
100
AcDbPolyline
 90
    4
 70
    1
 43
0
 10
222.0080000000001
 20
-40.37111046892625
 10
208.1460000000002
 20
-42.31991046892623
 10
206.197
 20
-28.45531046892622
 10
220.0610000000001
 20
-26.50691046892623
  0
LWPOLYLINE
  5
B7
100
AcDbEntity
  8
0
  6
ByLayer
 62
  256
370
   -1
100
AcDbPolyline
 90
    4
 70
    1
 43
0
 10
241.0770000000002
 20
-40.85761046892623
 10
227.0760000000001
 20
-40.85761046892623
 10
227.0760000000001
 20
-26.85551046892624
 10
241.0770000000002
 20
-26.85551046892624
  0
LWPOLYLINE
  5
B8
100
AcDbEntity
  8
0
  6
ByLayer
 62
  256
370
   -1
100
AcDbPolyline
 90
    4
 70
    1
 43
0
 10
253.2690000000002
 20
-26.85551046892624
 10
267.2710000000001
 20
-26.85551046892624
 10
267.2710000000001
 20
-40.85761046892623
 10
253.2690000000002
 20
-40.85761046892623
  0
LWPOLYLINE
  5
B9
100
AcDbEntity
  8
0
  6
ByLayer
 62
  256
370
   -1
100
AcDbPolyline
 90
    4
 70
    1
 43
0
 10
142.2349999999999
 20
-18.20821046892618
 10
156.1
 20
-16.25841046892617
 10
158.048
 20
-30.12291046892633
 10
144.1839999999998
 20
-32.07131046892623
  0
LWPOLYLINE
  5
BA
100
AcDbEntity
  8
0
  6
ByLayer
 62
  256
370
   -1
100
AcDbPolyline
 90
    4
 70
    1
 43
0
 10
179.963688087165
 20
-12.90679438099754
 10
193.8286029528378
 20
-10.96591866945584
 10
195.7690783820778
 20
-24.83143334683142
 10
181.9051635633521
 20
-26.7722095289607
  0
LWPOLYLINE
  5
BB
100
AcDbEntity
  8
0
  6
ByLayer
 62
  256
370
   -1
100
AcDbPolyline
 90
    4
 70
    1
 43
0
 10
198.8361007864058
 20
-10.2532476470191
 10
212.6966679115777
 20
-8.280574960382125
 10
214.6689390229403
 20
-22.14024278732827
 10
200.8093718962353
 20
-24.11291372297899
  0
LWPOLYLINE
  5
BC
100
AcDbEntity
  8
0
  6
ByLayer
 62
  256
370
   -1
100
AcDbPolyline
 90
    4
 70
    1
 43
0
 10
219.6460000000001
 20
-7.615310468926139
 10
233.6480000000001
 20
-7.615310468926139
 10
233.6480000000001
 20
-21.61741046892625
 10
219.6460000000001
 20
-21.61741046892624
  0
LWPOLYLINE
  5
BD
100
AcDbEntity
  8
0
  6
ByLayer
 62
  256
370
   -1
100
AcDbPolyline
 90
    4
 70
    1
 43
0
 10
238.6960000000001
 20
-7.615310468926139
 10
252.6960000000001
 20
-7.615310468926139
 10
252.6960000000001
 20
-21.61601046892625
 10
238.6960000000001
 20
-21.61601046892625
  0
LWPOLYLINE
  5
BE
100
AcDbEntity
  8
0
  6
ByLayer
 62
  256
370
   -1
100
AcDbPolyline
 90
    4
 70
    1
 43
0
 10
257.7480000000002
 20
-7.615310468926139
 10
271.7480000000001
 20
-7.615310468926139
 10
271.7480000000001
 20
-21.61601046892625
 10
257.7480000000002
 20
-21.61601046892625
  0
LWPOLYLINE
  5
BF
100
AcDbEntity
  8
0
  6
ByLayer
 62
  256
370
   -1
100
AcDbPolyline
 90
    4
 70
    1
 43
0
 10
161.101
 20
-15.55671046892619
 10
174.964
 20
-13.6083104689262
 10
176.912
 20
-27.47141046892624
 10
163.049
 20
-29.41981046892623
  0
LWPOLYLINE
  5
C0
100
AcDbEntity
  8
0
  6
ByLayer
 62
  256
370
   -1
100
AcDbPolyline
 90
    4
 70
    1
 43
0
 10
158.635
 20
-68.51491046892617
 10
144.771
 20
-70.46341046892618
 10
142.822
 20
-56.60031046892619
 10
156.685
 20
-54.65051046892619
  0
LWPOLYLINE
  5
C1
100
AcDbEntity
  8
0
  6
ByLayer
 62
  256
370
   -1
100
AcDbPolyline
 90
    4
 70
    1
 43
0
 10
126.43
 20
-70.46460046892616
 10
112.566
 20
-68.51610046892615
 10
114.514
 20
-54.65140046892615
 10
128.377
 20
-56.60160046892617
  0
LWPOLYLINE
  5
C2
100
AcDbEntity
  8
0
  6
ByLayer
 62
  256
370
   -1
100
AcDbPolyline
 90
    4
 70
    1
 43
0
 10
149.602
 20
-36.40941046892623
 10
163.467
 20
-34.46071046892625
 10
165.4150000000001
 20
-48.32521046892622
 10
151.552
 20
-50.27251046892622
  0
LWPOLYLINE
  5
C3
100
AcDbEntity
  8
0
  6
ByLayer
 62
  256
370
   -1
100
AcDbPolyline
 90
    4
 70
    1
 43
0
 10
260.6990000000001
 20
-46.09701046892623
 10
274.7009999999998
 20
-46.09701046892623
 10
274.7009999999999
 20
-60.09771046892616
 10
260.6990000000001
 20
-60.09771046892616
  0
LWPOLYLINE
  5
C4
100
AcDbEntity
  8
0
  6
ByLayer
 62
  256
370
   -1
100
AcDbPolyline
 90
    4
 70
    1
 43
0
 10
196.3630000000001
 20
-63.21211046892618
 10
182.5
 20
-65.16081046892617
 10
180.552
 20
-51.29631046892621
 10
194.4150000000001
 20
-49.34931046892623
  0
LWPOLYLINE
  5
C5
100
AcDbEntity
  8
0
  6
ByLayer
 62
  256
370
   -1
100
AcDbPolyline
 90
    4
 70
    1
 43
0
 10
117.5970739837496
 20
-30.73616026837193
 10
103.731804134695
 20
-28.79782212117018
 10
105.6707419549713
 20
-14.93205188006555
 10
119.5360118040258
 20
-16.87039002726733
  0
LWPOLYLINE
  5
C6
100
AcDbEntity
  8
0
  6
ByLayer
 62
  256
370
   -1
100
AcDbPolyline
 90
    4
 70
    1
 43
0
 10
79.85620643496668
 20
-25.44458635000809
 10
65.99108459983127
 20
-23.49565291429241
 10
67.93921815429825
 20
-9.632431129153165
 10
81.80233992693771
 20
-11.58036468987051
  0
LWPOLYLINE
  5
C7
100
AcDbEntity
  8
0
  6
ByLayer
 62
  256
370
   -1
100
AcDbPolyline
 90
    4
 70
    1
 43
0
 10
100.783
 20
-47.62380046892616
 10
86.92000000000004
 20
-45.67500046892615
 10
88.86900000000001
 20
-31.81050046892616
 10
102.733
 20
-33.75920046892615
  0
LWPOLYLINE
  5
C8
100
AcDbEntity
  8
0
  6
ByLayer
 62
  256
370
   -1
100
AcDbPolyline
 90
    4
 70
    1
 43
0
 10
88.70100000000002
 20
-65.16190046892616
 10
74.83600000000001
 20
-63.21340046892615
 10
76.78500000000005
 20
-49.35030046892615
 10
90.64899999999999
 20
-51.29760046892616
  0
CIRCLE
  5
C9
100
AcDbEntity
  8
0
  6
ByLayer
 62
  256
370
   -1
100
AcDbCircle
 10
279.9989999999997
 20
-20.29399999999999
 40
1.499999999999988
  0
CIRCLE
  5
CA
100
AcDbEntity
  8
0
  6
ByLayer
 62
  256
370
   -1
100
AcDbCircle
 10
279.9989999999997
 20
-8.793999999999986
 40
1.499999999999992
  0
CIRCLE
  5
CB
100
AcDbEntity
  8
0
  6
ByLayer
 62
  256
370
   -1
100
AcDbCircle
 10
279.9989999999997
 20
-14.54399999999998
 40
1.499999999999997
  0
ARC
  5
CC
100
AcDbEntity
  8
0
  6
ByLayer
 62
  256
370
   -1
100
AcDbCircle
 10
-4.996003610813204e-016
 20
-2.999999999999988
 40
6.000000000000011
100
AcDbArc
 50
90
 51
180
  0
ARC
  5
CD
100
AcDbEntity
  8
0
  6
ByLayer
 62
  256
370
   -1
100
AcDbCircle
 10
280.6069999999997
 20
-2.999999999999989
 40
6
100
AcDbArc
 50
0
 51
90
  0
LINE
  5
CE
100
AcDbEntity
  8
0
  6
ByLayer
 62
  256
370
   -1
100
AcDbLine
 10
0
 20
3.000000000000024
 11
280.6069999999997
 21
3.000000000000011
  0
ARC
  5
CF
100
AcDbEntity
  8
0
  6
ByLayer
 62
  256
370
   -1
100
AcDbCircle
 10
3.436140261214859e-014
 20
-83.64830046892614
 40
6
100
AcDbArc
 50
180
 51
270
  0
LINE
  5
D0
100
AcDbEntity
  8
0
  6
ByLayer
 62
  256
370
   -1
100
AcDbLine
 10
-6.000000000000012
 20
-2.999999999999988
 11
-5.999999999999966
 21
-83.64829996797722
  0
ARC
  5
D1
100
AcDbEntity
  8
0
  6
ByLayer
 62
  256
370
   -1
100
AcDbCircle
 10
280.6069999999997
 20
-83.64830046892614
 40
6
100
AcDbArc
 50
270
 51
0
  0
LINE
  5
D2
100
AcDbEntity
  8
0
  6
ByLayer
 62
  256
370
   -1
100
AcDbLine
 10
286.6069999999997
 20
-3.000002685498
 11
286.6069999999997
 21
-83.64830046892614
  0
LINE
  5
D3
100
AcDbEntity
  8
0
  6
ByLayer
 62
  256
370
   -1
100
AcDbLine
 10
125.3229269152793
 20
-100.1118004689262
 11
50.85084003912448
 21
-89.64830046892621
  0
LINE
  5
D4
100
AcDbEntity
  8
0
  6
ByLayer
 62
  256
370
   -1
100
AcDbLine
 10
4.218847493575595e-014
 20
-89.64830046892621
 11
50.85084003912448
 21
-89.64830046892621
  0
LINE
  5
D5
100
AcDbEntity
  8
0
  6
ByLayer
 62
  256
370
   -1
100
AcDbLine
 10
4.218847493575595e-014
 20
-89.64830046892614
 11
50.85084003912448
 21
-89.64830046892614
  0
CIRCLE
  5
D6
100
AcDbEntity
  8
0
  6
ByLayer
 62
  256
370
   -1
100
AcDbCircle
 10
3.436140261214859e-014
 20
-83.64830046892614
 40
1.5
  0
CIRCLE
  5
D7
100
AcDbEntity
  8
0
  6
ByLayer
 62
  256
370
   -1
100
AcDbCircle
 10
-4.996003610813204e-016
 20
-2.999999999999988
 40
1.5
  0
CIRCLE
  5
D8
100
AcDbEntity
  8
0
  6
ByLayer
 62
  256
370
   -1
100
AcDbCircle
 10
280.6069999999997
 20
-2.999999999999989
 40
1.5
  0
CIRCLE
  5
D9
100
AcDbEntity
  8
0
  6
ByLayer
 62
  256
370
   -1
100
AcDbCircle
 10
280.6069999999997
 20
-83.64830046892614
 40
1.5
  0
LINE
  5
DA
100
AcDbEntity
  8
0
  6
ByLayer
 62
  256
370
   -1
100
AcDbLine
 10
125.3229269152793
 20
-100.1118004689262
 11
145.8793353488189
 21
-100.1118004689262
  0
LINE
  5
DB
100
AcDbEntity
  8
0
  6
ByLayer
 62
  256
370
   -1
100
AcDbLine
 10
220.3106016268679
 20
-89.64830046892614
 11
145.8793353488189
 21
-100.1118004689262
  0
LINE
  5
DC
100
AcDbEntity
  8
0
  6
ByLayer
 62
  256
370
   -1
100
AcDbLine
 10
220.3106016268679
 20
-89.64830046892614
 11
280.6069999999997
 21
-89.64830046892614
  0
ENDBLK
  5
52
330
50
100
AcDbEntity
  8
0
100
AcDbBlockEnd
  0
BLOCK
  5
54
330
53
100
AcDbEntity
  8
0
100
AcDbBlockBegin
  2
Prime_E_switchplate_NoDogBones-1
 70
    0
 10
0
 20
0
  3
Prime_E_switchplate_NoDogBones-1
  1

  0
LWPOLYLINE
  5
DD
100
AcDbEntity
  8
0
  6
ByLayer
 62
  256
370
   -1
100
AcDbPolyline
 90
   16
 70
    1
 43
0
 10
99.9526195573944
 20
-71.3535561933552
 42
0.2035250169844448
 10
101.0162721008522
 20
-71.99283180723567
 10
117.7078830413131
 20
-74.33829093076596
 42
0.2034921336373637
 10
118.9063668882016
 20
-74.01703016080856
 42
-0.2035662600604114
 10
120.1052983088585
 20
-73.69583234765652
 10
122.1024875576209
 20
-73.97705174539445
 42
-0.2034284027755154
 10
123.1656119482117
 20
-74.61615344516744
 42
0.2035513896748217
 10
124.2294789522891
 20
-75.25535953168102
 10
125.726999998367
 20
-75.46550046869682
 10
123.778999998367
 20
-89.32860046869681
 10
91.04999999836708
 20
-84.7301004686968
 10
92.99899999836703
 20
-70.86560046869681
 10
94.49587682924567
 20
-71.07636235241998
 42
0.2036481167468608
 10
95.69519939386493
 20
-70.75484948765562
 42
-0.2036639689103302
 10
96.89461766652236
 20
-70.43335010165823
 10
98.88950027612027
 20
-70.71435560424077
 42
-0.2034367003182966
  0
LWPOLYLINE
  5
DE
100
AcDbEntity
  8
0
  6
ByLayer
 62
  256
370
   -1
100
AcDbPolyline
 90
   16
 70
    1
 43
0
 10
180.5590009916761
 20
-70.53321962099807
 10
182.507651435414
 20
-84.39622820709208
 10
149.7789990083245
 20
-88.99720131685427
 10
147.830923933984
 20
-75.13257132703015
 10
149.3279081433809
 20
-74.92257348116999
 42
0.2036481167468649
 10
150.3921500299191
 20
-74.28293737903726
 42
-0.2036639689103517
 10
151.4564876321802
 20
-73.64328785281637
 10
153.4515474863823
 20
-73.36354351112195
 42
-0.2034367003182869
 10
154.6496708899047
 20
-73.68494716585042
 42
0.2035250169844441
 10
155.8483275775664
 20
-74.00627595203443
 10
172.5398299691236
 20
-71.66004446291826
 42
0.2034921336373489
 10
173.6033351151794
 20
-71.02088187180483
 42
-0.2035662600604165
 10
174.6672878500025
 20
-70.3816564306069
 10
176.6646239455749
 20
-70.10148190221229
 42
-0.2034284027754926
 10
177.862725002891
 20
-70.42278909008611
 42
0.203551389674807
 10
179.0615686789919
 20
-70.74399192891734
  0
LWPOLYLINE
  5
DF
100
AcDbEntity
  8
0
  6
ByLayer
 62
  256
370
   -1
100
AcDbPolyline
 90
    4
 70
    1
 43
0
 10
8.00200000000002
 20
-65.18540046892613
 10
22.00200000000001
 20
-65.18540046892613
 10
22.00200000000001
 20
-79.18480046892614
 10
8.00200000000002
 20
-79.18480046892614
  0
LWPOLYLINE
  5
E0
100
AcDbEntity
  8
0
  6
ByLayer
 62
  256
370
   -1
100
AcDbPolyline
 90
    4
 70
    1
 43
0
 10
31.81400000000002
 20
-65.18540046892613
 10
45.813
 20
-65.18540046892613
 10
45.813
 20
-79.18480046892614
 10
31.81400000000002
 20
-79.18480046892614
  0
LWPOLYLINE
  5
E1
100
AcDbEntity
  8
0
  6
ByLayer
 62
  256
370
   -1
100
AcDbPolyline
 90
    4
 70
    1
 43
0
 10
83.69000000000005
 20
-83.69510046892616
 10
69.827
 20
-81.74660046892615
 10
71.77600000000004
 20
-67.88350046892616
 10
85.64000000000004
 20
-69.83210046892616
  0
LWPOLYLINE
  5
E2
100
AcDbEntity
  8
0
  6
ByLayer
 62
  256
370
   -1
100
AcDbPolyline
 90
    4
 70
    1
 43
0
 10
10.66900000000002
 20
-45.94520046892614
 10
24.66900000000001
 20
-45.94520046892614
 10
24.66900000000001
 20
-59.94590046892614
 10
10.66900000000002
 20
-59.94590046892614
  0
LWPOLYLINE
  5
E3
100
AcDbEntity
  8
0
  6
ByLayer
 62
  256
370
   -1
100
AcDbPolyline
 90
    4
 70
    1
 43
0
 10
36.86300000000005
 20
-45.94520046892614
 10
50.86300000000003
 20
-45.94520046892614
 10
50.86300000000003
 20
-59.94590046892614
 10
36.86300000000005
 20
-59.94590046892614
  0
LWPOLYLINE
  5
E4
100
AcDbEntity
  8
0
  6
ByLayer
 62
  256
370
   -1
100
AcDbPolyline
 90
    4
 70
    1
 43
0
 10
57.92100000000004
 20
-46.69910046892614
 10
71.78500000000005
 20
-48.64750046892615
 10
69.83500000000005
 20
-62.51060046892615
 10
55.97200000000002
 20
-60.56190046892615
  0
LWPOLYLINE
  5
E5
100
AcDbEntity
  8
0
  6
ByLayer
 62
  256
370
   -1
100
AcDbPolyline
 90
    4
 70
    1
 43
0
 10
95.65000000000003
 20
-52.00170046892615
 10
109.513
 20
-53.95010046892616
 10
107.565
 20
-67.81330046892617
 10
93.70200000000003
 20
-65.86470046892616
  0
LWPOLYLINE
  5
E6
100
AcDbEntity
  8
0
  6
ByLayer
 62
  256
370
   -1
100
AcDbPolyline
 90
    4
 70
    1
 43
0
 10
22.86000000000001
 20
-40.70580046892614
 10
8.858000000000033
 20
-40.70580046892614
 10
8.858000000000033
 20
-26.70370046892614
 10
22.86000000000001
 20
-26.70370046892614
  0
LWPOLYLINE
  5
E7
100
AcDbEntity
  8
0
  6
ByLayer
 62
  256
370
   -1
100
AcDbPolyline
 90
    4
 70
    1
 43
0
 10
30.19500000000002
 20
-26.70370046892614
 10
44.19400000000002
 20
-26.70370046892614
 10
44.19400000000002
 20
-40.70580046892614
 10
30.19500000000002
 20
-40.70580046892614
  0
LWPOLYLINE
  5
E8
100
AcDbEntity
  8
0
  6
ByLayer
 62
  256
370
   -1
100
AcDbPolyline
 90
    4
 70
    1
 43
0
 10
51.14000000000006
 20
-26.50930046892614
 10
65.00300000000001
 20
-28.45660046892616
 10
63.05500000000003
 20
-42.32080046892614
 10
49.19100000000002
 20
-40.37240046892615
  0
LWPOLYLINE
  5
E9
100
AcDbEntity
  8
0
  6
ByLayer
 62
  256
370
   -1
100
AcDbPolyline
 90
    4
 70
    1
 43
0
 10
70.00300000000001
 20
-29.16080046892616
 10
83.86800000000002
 20
-31.10780046892615
 10
81.91900000000003
 20
-44.97230046892616
 10
68.05600000000004
 20
-43.02390046892615
  0
LWPOLYLINE
  5
EA
100
AcDbEntity
  8
0
  6
ByLayer
 62
  256
370
   -1
100
AcDbPolyline
 90
    4
 70
    1
 43
0
 10
119.649
 20
-50.27350046892616
 10
105.784
 20
-48.32650046892617
 10
107.734
 20
-34.46200046892617
 10
121.597
 20
-36.41040046892616
  0
LWPOLYLINE
  5
EB
100
AcDbEntity
  8
0
  6
ByLayer
 62
  256
370
   -1
100
AcDbPolyline
 90
    4
 70
    1
 43
0
 10
9.050000000000011
 20
-7.463500468926138
 10
23.05000000000001
 20
-7.463500468926156
 10
23.05000000000001
 20
-21.46560046892616
 10
9.050000000000011
 20
-21.46560046892616
  0
LWPOLYLINE
  5
EC
100
AcDbEntity
  8
0
  6
ByLayer
 62
  256
370
   -1
100
AcDbPolyline
 90
    4
 70
    1
 43
0
 10
28.10000000000002
 20
-7.463500468926156
 10
42.10000000000002
 20
-7.463500468926156
 10
42.10000000000002
 20
-21.46560046892616
 10
28.10000000000002
 20
-21.46560046892616
  0
LWPOLYLINE
  5
ED
100
AcDbEntity
  8
0
  6
ByLayer
 62
  256
370
   -1
100
AcDbPolyline
 90
    4
 70
    1
 43
0
 10
49.075
 20
-6.981300468926168
 10
62.93800000000003
 20
-8.929700468926161
 10
60.99000000000005
 20
-22.79280046892615
 10
47.12500000000004
 20
-20.84550046892616
  0
LWPOLYLINE
  5
EE
100
AcDbEntity
  8
0
  6
ByLayer
 62
  256
370
   -1
100
AcDbPolyline
 90
    4
 70
    1
 43
0
 10
86.80372657482349
 20
-12.28311898385936
 10
100.6680639396574
 20
-14.22911692683598
 10
98.72246584074398
 20
-28.09255422238083
 10
84.85912847589501
 20
-26.14655610614775
  0
LWPOLYLINE
  5
EF
100
AcDbEntity
  8
0
  6
ByLayer
 62
  256
370
   -1
100
AcDbPolyline
 90
    4
 70
    1
 43
0
 10
206.0890000000001
 20
-81.08261046892616
 10
192.2250000000002
 20
-83.03111046892617
 10
190.2760000000001
 20
-69.16811046892617
 10
204.1410000000001
 20
-67.21821046892617
  0
LWPOLYLINE
  5
F0
100
AcDbEntity
  8
0
  6
ByLayer
 62
  256
370
   -1
100
AcDbPolyline
 90
    4
 70
    1
 43
0
 10
248.7930000000001
 20
-79.3366104689262
 10
234.7910000000001
 20
-79.3366104689262
 10
234.7910000000001
 20
-65.33721046892617
 10
248.7930000000001
 20
-65.33721046892617
  0
LWPOLYLINE
  5
F1
100
AcDbEntity
  8
0
  6
ByLayer
 62
  256
370
   -1
100
AcDbPolyline
 90
    4
 70
    1
 43
0
 10
272.602
 20
-79.33661046892621
 10
258.603
 20
-79.33661046892621
 10
258.603
 20
-65.33721046892617
 10
272.602
 20
-65.33721046892617
  0
LWPOLYLINE
  5
F2
100
AcDbEntity
  8
0
  6
ByLayer
 62
  256
370
   -1
100
AcDbPolyline
 90
    4
 70
    1
 43
0
 10
161.6859999999999
 20
-53.94921046892619
 10
175.551
 20
-51.9990104689262
 10
177.4989999999999
 20
-65.86361046892618
 10
163.635
 20
-67.81211046892616
  0
LWPOLYLINE
  5
F3
100
AcDbEntity
  8
0
  6
ByLayer
 62
  256
370
   -1
100
AcDbPolyline
 90
    4
 70
    1
 43
0
 10
199.4150000000001
 20
-48.64621046892624
 10
213.2800000000001
 20
-46.69781046892623
 10
215.2270000000001
 20
-60.56091046892618
 10
201.3640000000001
 20
-62.50931046892618
  0
LWPOLYLINE
  5
F4
100
AcDbEntity
  8
0
  6
ByLayer
 62
  256
370
   -1
100
AcDbPolyline
 90
    4
 70
    1
 43
0
 10
220.2180000000001
 20
-46.09701046892623
 10
234.2190000000002
 20
-46.09701046892623
 10
234.2190000000002
 20
-60.09771046892616
 10
220.2180000000001
 20
-60.09771046892616
  0
LWPOLYLINE
  5
F5
100
AcDbEntity
  8
0
  6
ByLayer
 62
  256
370
   -1
100
AcDbPolyline
 90
    4
 70
    1
 43
0
 10
239.2680000000001
 20
-46.09701046892621
 10
253.2690000000002
 20
-46.09701046892623
 10
253.2690000000002
 20
-60.09771046892616
 10
239.2680000000001
 20
-60.09771046892616
  0
LWPOLYLINE
  5
F6
100
AcDbEntity
  8
0
  6
ByLayer
 62
  256
370
   -1
100
AcDbPolyline
 90
    4
 70
    1
 43
0
 10
184.279
 20
-45.67411046892623
 10
170.416
 20
-47.62251046892624
 10
168.468
 20
-33.75791046892623
 10
182.332
 20
-31.80951046892623
  0
LWPOLYLINE
  5
F7
100
AcDbEntity
  8
0
  6
ByLayer
 62
  256
370
   -1
100
AcDbPolyline
 90
    4
 70
    1
 43
0
 10
203.1450000000002
 20
-43.02121046892624
 10
189.281
 20
-44.97101046892623
 10
187.3330000000001
 20
-31.10681046892623
 10
201.1960000000001
 20
-29.15811046892623
  0
LWPOLYLINE
  5
F8
100
AcDbEntity
  8
0
  6
ByLayer
 62
  256
370
   -1
100
AcDbPolyline
 90
    4
 70
    1
 43
0
 10
222.0080000000001
 20
-40.37111046892625
 10
208.1460000000002
 20
-42.31991046892623
 10
206.197
 20
-28.45531046892622
 10
220.0610000000001
 20
-26.50691046892623
  0
LWPOLYLINE
  5
F9
100
AcDbEntity
  8
0
  6
ByLayer
 62
  256
370
   -1
100
AcDbPolyline
 90
    4
 70
    1
 43
0
 10
241.0770000000002
 20
-40.85761046892623
 10
227.0760000000001
 20
-40.85761046892623
 10
227.0760000000001
 20
-26.85551046892624
 10
241.0770000000002
 20
-26.85551046892624
  0
LWPOLYLINE
  5
FA
100
AcDbEntity
  8
0
  6
ByLayer
 62
  256
370
   -1
100
AcDbPolyline
 90
    4
 70
    1
 43
0
 10
253.2690000000002
 20
-26.85551046892624
 10
267.2710000000001
 20
-26.85551046892624
 10
267.2710000000001
 20
-40.85761046892623
 10
253.2690000000002
 20
-40.85761046892623
  0
LWPOLYLINE
  5
FB
100
AcDbEntity
  8
0
  6
ByLayer
 62
  256
370
   -1
100
AcDbPolyline
 90
    4
 70
    1
 43
0
 10
142.2349999999999
 20
-18.20821046892618
 10
156.1
 20
-16.25841046892617
 10
158.048
 20
-30.12291046892633
 10
144.1839999999998
 20
-32.07131046892623
  0
LWPOLYLINE
  5
FC
100
AcDbEntity
  8
0
  6
ByLayer
 62
  256
370
   -1
100
AcDbPolyline
 90
    4
 70
    1
 43
0
 10
179.963688087165
 20
-12.90679438099754
 10
193.8286029528378
 20
-10.96591866945584
 10
195.7690783820778
 20
-24.83143334683142
 10
181.9051635633521
 20
-26.7722095289607
  0
LWPOLYLINE
  5
FD
100
AcDbEntity
  8
0
  6
ByLayer
 62
  256
370
   -1
100
AcDbPolyline
 90
    4
 70
    1
 43
0
 10
198.8361007864058
 20
-10.2532476470191
 10
212.6966679115777
 20
-8.280574960382125
 10
214.6689390229403
 20
-22.14024278732827
 10
200.8093718962353
 20
-24.11291372297899
  0
LWPOLYLINE
  5
FE
100
AcDbEntity
  8
0
  6
ByLayer
 62
  256
370
   -1
100
AcDbPolyline
 90
    4
 70
    1
 43
0
 10
219.6460000000001
 20
-7.615310468926139
 10
233.6480000000001
 20
-7.615310468926139
 10
233.6480000000001
 20
-21.61741046892625
 10
219.6460000000001
 20
-21.61741046892624
  0
LWPOLYLINE
  5
FF
100
AcDbEntity
  8
0
  6
ByLayer
 62
  256
370
   -1
100
AcDbPolyline
 90
    4
 70
    1
 43
0
 10
238.6960000000001
 20
-7.615310468926139
 10
252.6960000000001
 20
-7.615310468926139
 10
252.6960000000001
 20
-21.61601046892625
 10
238.6960000000001
 20
-21.61601046892625
  0
LWPOLYLINE
  5
100
100
AcDbEntity
  8
0
  6
ByLayer
 62
  256
370
   -1
100
AcDbPolyline
 90
    4
 70
    1
 43
0
 10
257.7480000000002
 20
-7.615310468926139
 10
271.7480000000001
 20
-7.615310468926139
 10
271.7480000000001
 20
-21.61601046892625
 10
257.7480000000002
 20
-21.61601046892625
  0
LWPOLYLINE
  5
101
100
AcDbEntity
  8
0
  6
ByLayer
 62
  256
370
   -1
100
AcDbPolyline
 90
    4
 70
    1
 43
0
 10
161.101
 20
-15.55671046892619
 10
174.964
 20
-13.6083104689262
 10
176.912
 20
-27.47141046892624
 10
163.049
 20
-29.41981046892623
  0
LWPOLYLINE
  5
102
100
AcDbEntity
  8
0
  6
ByLayer
 62
  256
370
   -1
100
AcDbPolyline
 90
    4
 70
    1
 43
0
 10
158.635
 20
-68.51491046892617
 10
144.771
 20
-70.46341046892618
 10
142.822
 20
-56.60031046892619
 10
156.685
 20
-54.65051046892619
  0
LWPOLYLINE
  5
103
100
AcDbEntity
  8
0
  6
ByLayer
 62
  256
370
   -1
100
AcDbPolyline
 90
    4
 70
    1
 43
0
 10
126.43
 20
-70.46460046892616
 10
112.566
 20
-68.51610046892615
 10
114.514
 20
-54.65140046892615
 10
128.377
 20
-56.60160046892617
  0
LWPOLYLINE
  5
104
100
AcDbEntity
  8
0
  6
ByLayer
 62
  256
370
   -1
100
AcDbPolyline
 90
    4
 70
    1
 43
0
 10
149.602
 20
-36.40941046892623
 10
163.467
 20
-34.46071046892625
 10
165.4150000000001
 20
-48.32521046892622
 10
151.552
 20
-50.27251046892622
  0
LWPOLYLINE
  5
105
100
AcDbEntity
  8
0
  6
ByLayer
 62
  256
370
   -1
100
AcDbPolyline
 90
    4
 70
    1
 43
0
 10
260.6990000000001
 20
-46.09701046892623
 10
274.7009999999998
 20
-46.09701046892623
 10
274.7009999999999
 20
-60.09771046892616
 10
260.6990000000001
 20
-60.09771046892616
  0
LWPOLYLINE
  5
106
100
AcDbEntity
  8
0
  6
ByLayer
 62
  256
370
   -1
100
AcDbPolyline
 90
    4
 70
    1
 43
0
 10
196.3630000000001
 20
-63.21211046892618
 10
182.5
 20
-65.16081046892617
 10
180.552
 20
-51.29631046892621
 10
194.4150000000001
 20
-49.34931046892623
  0
LWPOLYLINE
  5
107
100
AcDbEntity
  8
0
  6
ByLayer
 62
  256
370
   -1
100
AcDbPolyline
 90
    4
 70
    1
 43
0
 10
117.5970739837496
 20
-30.73616026837193
 10
103.731804134695
 20
-28.79782212117018
 10
105.6707419549713
 20
-14.93205188006555
 10
119.5360118040258
 20
-16.87039002726733
  0
LWPOLYLINE
  5
108
100
AcDbEntity
  8
0
  6
ByLayer
 62
  256
370
   -1
100
AcDbPolyline
 90
    4
 70
    1
 43
0
 10
79.85620643496668
 20
-25.44458635000809
 10
65.99108459983127
 20
-23.49565291429241
 10
67.93921815429825
 20
-9.632431129153165
 10
81.80233992693771
 20
-11.58036468987051
  0
LWPOLYLINE
  5
109
100
AcDbEntity
  8
0
  6
ByLayer
 62
  256
370
   -1
100
AcDbPolyline
 90
    4
 70
    1
 43
0
 10
100.783
 20
-47.62380046892616
 10
86.92000000000004
 20
-45.67500046892615
 10
88.86900000000001
 20
-31.81050046892616
 10
102.733
 20
-33.75920046892615
  0
LWPOLYLINE
  5
10A
100
AcDbEntity
  8
0
  6
ByLayer
 62
  256
370
   -1
100
AcDbPolyline
 90
    4
 70
    1
 43
0
 10
88.70100000000002
 20
-65.16190046892616
 10
74.83600000000001
 20
-63.21340046892615
 10
76.78500000000005
 20
-49.35030046892615
 10
90.64899999999999
 20
-51.29760046892616
  0
CIRCLE
  5
10B
100
AcDbEntity
  8
0
  6
ByLayer
 62
  256
370
   -1
100
AcDbCircle
 10
279.9989999999997
 20
-20.29399999999999
 40
1.499999999999988
  0
CIRCLE
  5
10C
100
AcDbEntity
  8
0
  6
ByLayer
 62
  256
370
   -1
100
AcDbCircle
 10
279.9989999999997
 20
-8.793999999999986
 40
1.499999999999992
  0
CIRCLE
  5
10D
100
AcDbEntity
  8
0
  6
ByLayer
 62
  256
370
   -1
100
AcDbCircle
 10
279.9989999999997
 20
-14.54399999999998
 40
1.499999999999997
  0
ARC
  5
10E
100
AcDbEntity
  8
0
  6
ByLayer
 62
  256
370
   -1
100
AcDbCircle
 10
-4.996003610813204e-016
 20
-2.999999999999988
 40
6.000000000000011
100
AcDbArc
 50
90
 51
180
  0
ARC
  5
10F
100
AcDbEntity
  8
0
  6
ByLayer
 62
  256
370
   -1
100
AcDbCircle
 10
280.6069999999997
 20
-2.999999999999989
 40
6
100
AcDbArc
 50
0
 51
90
  0
LINE
  5
110
100
AcDbEntity
  8
0
  6
ByLayer
 62
  256
370
   -1
100
AcDbLine
 10
0
 20
3.000000000000024
 11
280.6069999999997
 21
3.000000000000011
  0
ARC
  5
111
100
AcDbEntity
  8
0
  6
ByLayer
 62
  256
370
   -1
100
AcDbCircle
 10
3.436140261214859e-014
 20
-83.64830046892614
 40
6
100
AcDbArc
 50
180
 51
270
  0
LINE
  5
112
100
AcDbEntity
  8
0
  6
ByLayer
 62
  256
370
   -1
100
AcDbLine
 10
-6.000000000000012
 20
-2.999999999999988
 11
-5.999999999999966
 21
-83.64829996797722
  0
ARC
  5
113
100
AcDbEntity
  8
0
  6
ByLayer
 62
  256
370
   -1
100
AcDbCircle
 10
280.6069999999997
 20
-83.64830046892614
 40
6
100
AcDbArc
 50
270
 51
0
  0
LINE
  5
114
100
AcDbEntity
  8
0
  6
ByLayer
 62
  256
370
   -1
100
AcDbLine
 10
286.6069999999997
 20
-3.000002685498
 11
286.6069999999997
 21
-83.64830046892614
  0
LINE
  5
115
100
AcDbEntity
  8
0
  6
ByLayer
 62
  256
370
   -1
100
AcDbLine
 10
125.3229269152793
 20
-100.1118004689262
 11
50.85084003912448
 21
-89.64830046892621
  0
LINE
  5
116
100
AcDbEntity
  8
0
  6
ByLayer
 62
  256
370
   -1
100
AcDbLine
 10
4.218847493575595e-014
 20
-89.64830046892621
 11
50.85084003912448
 21
-89.64830046892621
  0
LINE
  5
117
100
AcDbEntity
  8
0
  6
ByLayer
 62
  256
370
   -1
100
AcDbLine
 10
4.218847493575595e-014
 20
-89.64830046892614
 11
50.85084003912448
 21
-89.64830046892614
  0
CIRCLE
  5
118
100
AcDbEntity
  8
0
  6
ByLayer
 62
  256
370
   -1
100
AcDbCircle
 10
3.436140261214859e-014
 20
-83.64830046892614
 40
1.5
  0
CIRCLE
  5
119
100
AcDbEntity
  8
0
  6
ByLayer
 62
  256
370
   -1
100
AcDbCircle
 10
-4.996003610813204e-016
 20
-2.999999999999988
 40
1.5
  0
CIRCLE
  5
11A
100
AcDbEntity
  8
0
  6
ByLayer
 62
  256
370
   -1
100
AcDbCircle
 10
280.6069999999997
 20
-2.999999999999989
 40
1.5
  0
CIRCLE
  5
11B
100
AcDbEntity
  8
0
  6
ByLayer
 62
  256
370
   -1
100
AcDbCircle
 10
280.6069999999997
 20
-83.64830046892614
 40
1.5
  0
LINE
  5
11C
100
AcDbEntity
  8
0
  6
ByLayer
 62
  256
370
   -1
100
AcDbLine
 10
125.3229269152793
 20
-100.1118004689262
 11
145.8793353488189
 21
-100.1118004689262
  0
LINE
  5
11D
100
AcDbEntity
  8
0
  6
ByLayer
 62
  256
370
   -1
100
AcDbLine
 10
220.3106016268679
 20
-89.64830046892614
 11
145.8793353488189
 21
-100.1118004689262
  0
LINE
  5
11E
100
AcDbEntity
  8
0
  6
ByLayer
 62
  256
370
   -1
100
AcDbLine
 10
220.3106016268679
 20
-89.64830046892614
 11
280.6069999999997
 21
-89.64830046892614
  0
ENDBLK
  5
55
330
53
100
AcDbEntity
  8
0
100
AcDbBlockEnd
  0
BLOCK
  5
57
330
56
100
AcDbEntity
  8
0
100
AcDbBlockBegin
  2
Prime_E_switchplate_NoDogBones-2
 70
    0
 10
0
 20
0
  3
Prime_E_switchplate_NoDogBones-2
  1

  0
LWPOLYLINE
  5
11F
100
AcDbEntity
  8
0
  6
ByLayer
 62
  256
370
   -1
100
AcDbPolyline
 90
   16
 70
    1
 43
0
 10
99.9526195573944
 20
-71.3535561933552
 42
0.2035250169844448
 10
101.0162721008522
 20
-71.99283180723567
 10
117.7078830413131
 20
-74.33829093076596
 42
0.2034921336373637
 10
118.9063668882016
 20
-74.01703016080856
 42
-0.2035662600604114
 10
120.1052983088585
 20
-73.69583234765652
 10
122.1024875576209
 20
-73.97705174539445
 42
-0.2034284027755154
 10
123.1656119482117
 20
-74.61615344516744
 42
0.2035513896748217
 10
124.2294789522891
 20
-75.25535953168102
 10
125.726999998367
 20
-75.46550046869682
 10
123.778999998367
 20
-89.32860046869681
 10
91.04999999836708
 20
-84.7301004686968
 10
92.99899999836703
 20
-70.86560046869681
 10
94.49587682924567
 20
-71.07636235241998
 42
0.2036481167468608
 10
95.69519939386493
 20
-70.75484948765562
 42
-0.2036639689103302
 10
96.89461766652236
 20
-70.43335010165823
 10
98.88950027612027
 20
-70.71435560424077
 42
-0.2034367003182966
  0
LWPOLYLINE
  5
120
100
AcDbEntity
  8
0
  6
ByLayer
 62
  256
370
   -1
100
AcDbPolyline
 90
   16
 70
    1
 43
0
 10
180.5590009916761
 20
-70.53321962099807
 10
182.507651435414
 20
-84.39622820709208
 10
149.7789990083245
 20
-88.99720131685427
 10
147.830923933984
 20
-75.13257132703015
 10
149.3279081433809
 20
-74.92257348116999
 42
0.2036481167468649
 10
150.3921500299191
 20
-74.28293737903726
 42
-0.2036639689103517
 10
151.4564876321802
 20
-73.64328785281637
 10
153.4515474863823
 20
-73.36354351112195
 42
-0.2034367003182869
 10
154.6496708899047
 20
-73.68494716585042
 42
0.2035250169844441
 10
155.8483275775664
 20
-74.00627595203443
 10
172.5398299691236
 20
-71.66004446291826
 42
0.2034921336373489
 10
173.6033351151794
 20
-71.02088187180483
 42
-0.2035662600604165
 10
174.6672878500025
 20
-70.3816564306069
 10
176.6646239455749
 20
-70.10148190221229
 42
-0.2034284027754926
 10
177.862725002891
 20
-70.42278909008611
 42
0.203551389674807
 10
179.0615686789919
 20
-70.74399192891734
  0
LWPOLYLINE
  5
121
100
AcDbEntity
  8
0
  6
ByLayer
 62
  256
370
   -1
100
AcDbPolyline
 90
    4
 70
    1
 43
0
 10
8.00200000000002
 20
-65.18540046892613
 10
22.00200000000001
 20
-65.18540046892613
 10
22.00200000000001
 20
-79.18480046892614
 10
8.00200000000002
 20
-79.18480046892614
  0
LWPOLYLINE
  5
122
100
AcDbEntity
  8
0
  6
ByLayer
 62
  256
370
   -1
100
AcDbPolyline
 90
    4
 70
    1
 43
0
 10
31.81400000000002
 20
-65.18540046892613
 10
45.813
 20
-65.18540046892613
 10
45.813
 20
-79.18480046892614
 10
31.81400000000002
 20
-79.18480046892614
  0
LWPOLYLINE
  5
123
100
AcDbEntity
  8
0
  6
ByLayer
 62
  256
370
   -1
100
AcDbPolyline
 90
    4
 70
    1
 43
0
 10
83.69000000000005
 20
-83.69510046892616
 10
69.827
 20
-81.74660046892615
 10
71.77600000000004
 20
-67.88350046892616
 10
85.64000000000004
 20
-69.83210046892616
  0
LWPOLYLINE
  5
124
100
AcDbEntity
  8
0
  6
ByLayer
 62
  256
370
   -1
100
AcDbPolyline
 90
    4
 70
    1
 43
0
 10
10.66900000000002
 20
-45.94520046892614
 10
24.66900000000001
 20
-45.94520046892614
 10
24.66900000000001
 20
-59.94590046892614
 10
10.66900000000002
 20
-59.94590046892614
  0
LWPOLYLINE
  5
125
100
AcDbEntity
  8
0
  6
ByLayer
 62
  256
370
   -1
100
AcDbPolyline
 90
    4
 70
    1
 43
0
 10
36.86300000000005
 20
-45.94520046892614
 10
50.86300000000003
 20
-45.94520046892614
 10
50.86300000000003
 20
-59.94590046892614
 10
36.86300000000005
 20
-59.94590046892614
  0
LWPOLYLINE
  5
126
100
AcDbEntity
  8
0
  6
ByLayer
 62
  256
370
   -1
100
AcDbPolyline
 90
    4
 70
    1
 43
0
 10
57.92100000000004
 20
-46.69910046892614
 10
71.78500000000005
 20
-48.64750046892615
 10
69.83500000000005
 20
-62.51060046892615
 10
55.97200000000002
 20
-60.56190046892615
  0
LWPOLYLINE
  5
127
100
AcDbEntity
  8
0
  6
ByLayer
 62
  256
370
   -1
100
AcDbPolyline
 90
    4
 70
    1
 43
0
 10
95.65000000000003
 20
-52.00170046892615
 10
109.513
 20
-53.95010046892616
 10
107.565
 20
-67.81330046892617
 10
93.70200000000003
 20
-65.86470046892616
  0
LWPOLYLINE
  5
128
100
AcDbEntity
  8
0
  6
ByLayer
 62
  256
370
   -1
100
AcDbPolyline
 90
    4
 70
    1
 43
0
 10
22.86000000000001
 20
-40.70580046892614
 10
8.858000000000033
 20
-40.70580046892614
 10
8.858000000000033
 20
-26.70370046892614
 10
22.86000000000001
 20
-26.70370046892614
  0
LWPOLYLINE
  5
129
100
AcDbEntity
  8
0
  6
ByLayer
 62
  256
370
   -1
100
AcDbPolyline
 90
    4
 70
    1
 43
0
 10
30.19500000000002
 20
-26.70370046892614
 10
44.19400000000002
 20
-26.70370046892614
 10
44.19400000000002
 20
-40.70580046892614
 10
30.19500000000002
 20
-40.70580046892614
  0
LWPOLYLINE
  5
12A
100
AcDbEntity
  8
0
  6
ByLayer
 62
  256
370
   -1
100
AcDbPolyline
 90
    4
 70
    1
 43
0
 10
51.14000000000006
 20
-26.50930046892614
 10
65.00300000000001
 20
-28.45660046892616
 10
63.05500000000003
 20
-42.32080046892614
 10
49.19100000000002
 20
-40.37240046892615
  0
LWPOLYLINE
  5
12B
100
AcDbEntity
  8
0
  6
ByLayer
 62
  256
370
   -1
100
AcDbPolyline
 90
    4
 70
    1
 43
0
 10
70.00300000000001
 20
-29.16080046892616
 10
83.86800000000002
 20
-31.10780046892615
 10
81.91900000000003
 20
-44.97230046892616
 10
68.05600000000004
 20
-43.02390046892615
  0
LWPOLYLINE
  5
12C
100
AcDbEntity
  8
0
  6
ByLayer
 62
  256
370
   -1
100
AcDbPolyline
 90
    4
 70
    1
 43
0
 10
119.649
 20
-50.27350046892616
 10
105.784
 20
-48.32650046892617
 10
107.734
 20
-34.46200046892617
 10
121.597
 20
-36.41040046892616
  0
LWPOLYLINE
  5
12D
100
AcDbEntity
  8
0
  6
ByLayer
 62
  256
370
   -1
100
AcDbPolyline
 90
    4
 70
    1
 43
0
 10
9.050000000000011
 20
-7.463500468926138
 10
23.05000000000001
 20
-7.463500468926156
 10
23.05000000000001
 20
-21.46560046892616
 10
9.050000000000011
 20
-21.46560046892616
  0
LWPOLYLINE
  5
12E
100
AcDbEntity
  8
0
  6
ByLayer
 62
  256
370
   -1
100
AcDbPolyline
 90
    4
 70
    1
 43
0
 10
28.10000000000002
 20
-7.463500468926156
 10
42.10000000000002
 20
-7.463500468926156
 10
42.10000000000002
 20
-21.46560046892616
 10
28.10000000000002
 20
-21.46560046892616
  0
LWPOLYLINE
  5
12F
100
AcDbEntity
  8
0
  6
ByLayer
 62
  256
370
   -1
100
AcDbPolyline
 90
    4
 70
    1
 43
0
 10
49.075
 20
-6.981300468926168
 10
62.93800000000003
 20
-8.929700468926161
 10
60.99000000000005
 20
-22.79280046892615
 10
47.12500000000004
 20
-20.84550046892616
  0
LWPOLYLINE
  5
130
100
AcDbEntity
  8
0
  6
ByLayer
 62
  256
370
   -1
100
AcDbPolyline
 90
    4
 70
    1
 43
0
 10
86.80372657482349
 20
-12.28311898385936
 10
100.6680639396574
 20
-14.22911692683598
 10
98.72246584074398
 20
-28.09255422238083
 10
84.85912847589501
 20
-26.14655610614775
  0
LWPOLYLINE
  5
131
100
AcDbEntity
  8
0
  6
ByLayer
 62
  256
370
   -1
100
AcDbPolyline
 90
    4
 70
    1
 43
0
 10
206.0890000000001
 20
-81.08261046892616
 10
192.2250000000002
 20
-83.03111046892617
 10
190.2760000000001
 20
-69.16811046892617
 10
204.1410000000001
 20
-67.21821046892617
  0
LWPOLYLINE
  5
132
100
AcDbEntity
  8
0
  6
ByLayer
 62
  256
370
   -1
100
AcDbPolyline
 90
    4
 70
    1
 43
0
 10
248.7930000000001
 20
-79.3366104689262
 10
234.7910000000001
 20
-79.3366104689262
 10
234.7910000000001
 20
-65.33721046892617
 10
248.7930000000001
 20
-65.33721046892617
  0
LWPOLYLINE
  5
133
100
AcDbEntity
  8
0
  6
ByLayer
 62
  256
370
   -1
100
AcDbPolyline
 90
    4
 70
    1
 43
0
 10
272.602
 20
-79.33661046892621
 10
258.603
 20
-79.33661046892621
 10
258.603
 20
-65.33721046892617
 10
272.602
 20
-65.33721046892617
  0
LWPOLYLINE
  5
134
100
AcDbEntity
  8
0
  6
ByLayer
 62
  256
370
   -1
100
AcDbPolyline
 90
    4
 70
    1
 43
0
 10
161.6859999999999
 20
-53.94921046892619
 10
175.551
 20
-51.9990104689262
 10
177.4989999999999
 20
-65.86361046892618
 10
163.635
 20
-67.81211046892616
  0
LWPOLYLINE
  5
135
100
AcDbEntity
  8
0
  6
ByLayer
 62
  256
370
   -1
100
AcDbPolyline
 90
    4
 70
    1
 43
0
 10
199.4150000000001
 20
-48.64621046892624
 10
213.2800000000001
 20
-46.69781046892623
 10
215.2270000000001
 20
-60.56091046892618
 10
201.3640000000001
 20
-62.50931046892618
  0
LWPOLYLINE
  5
136
100
AcDbEntity
  8
0
  6
ByLayer
 62
  256
370
   -1
100
AcDbPolyline
 90
    4
 70
    1
 43
0
 10
220.2180000000001
 20
-46.09701046892623
 10
234.2190000000002
 20
-46.09701046892623
 10
234.2190000000002
 20
-60.09771046892616
 10
220.2180000000001
 20
-60.09771046892616
  0
LWPOLYLINE
  5
137
100
AcDbEntity
  8
0
  6
ByLayer
 62
  256
370
   -1
100
AcDbPolyline
 90
    4
 70
    1
 43
0
 10
239.2680000000001
 20
-46.09701046892621
 10
253.2690000000002
 20
-46.09701046892623
 10
253.2690000000002
 20
-60.09771046892616
 10
239.2680000000001
 20
-60.09771046892616
  0
LWPOLYLINE
  5
138
100
AcDbEntity
  8
0
  6
ByLayer
 62
  256
370
   -1
100
AcDbPolyline
 90
    4
 70
    1
 43
0
 10
184.279
 20
-45.67411046892623
 10
170.416
 20
-47.62251046892624
 10
168.468
 20
-33.75791046892623
 10
182.332
 20
-31.80951046892623
  0
LWPOLYLINE
  5
139
100
AcDbEntity
  8
0
  6
ByLayer
 62
  256
370
   -1
100
AcDbPolyline
 90
    4
 70
    1
 43
0
 10
203.1450000000002
 20
-43.02121046892624
 10
189.281
 20
-44.97101046892623
 10
187.3330000000001
 20
-31.10681046892623
 10
201.1960000000001
 20
-29.15811046892623
  0
LWPOLYLINE
  5
13A
100
AcDbEntity
  8
0
  6
ByLayer
 62
  256
370
   -1
100
AcDbPolyline
 90
    4
 70
    1
 43
0
 10
222.0080000000001
 20
-40.37111046892625
 10
208.1460000000002
 20
-42.31991046892623
 10
206.197
 20
-28.45531046892622
 10
220.0610000000001
 20
-26.50691046892623
  0
LWPOLYLINE
  5
13B
100
AcDbEntity
  8
0
  6
ByLayer
 62
  256
370
   -1
100
AcDbPolyline
 90
    4
 70
    1
 43
0
 10
241.0770000000002
 20
-40.85761046892623
 10
227.0760000000001
 20
-40.85761046892623
 10
227.0760000000001
 20
-26.85551046892624
 10
241.0770000000002
 20
-26.85551046892624
  0
LWPOLYLINE
  5
13C
100
AcDbEntity
  8
0
  6
ByLayer
 62
  256
370
   -1
100
AcDbPolyline
 90
    4
 70
    1
 43
0
 10
253.2690000000002
 20
-26.85551046892624
 10
267.2710000000001
 20
-26.85551046892624
 10
267.2710000000001
 20
-40.85761046892623
 10
253.2690000000002
 20
-40.85761046892623
  0
LWPOLYLINE
  5
13D
100
AcDbEntity
  8
0
  6
ByLayer
 62
  256
370
   -1
100
AcDbPolyline
 90
    4
 70
    1
 43
0
 10
142.2349999999999
 20
-18.20821046892618
 10
156.1
 20
-16.25841046892617
 10
158.048
 20
-30.12291046892633
 10
144.1839999999998
 20
-32.07131046892623
  0
LWPOLYLINE
  5
13E
100
AcDbEntity
  8
0
  6
ByLayer
 62
  256
370
   -1
100
AcDbPolyline
 90
    4
 70
    1
 43
0
 10
179.963688087165
 20
-12.90679438099754
 10
193.8286029528378
 20
-10.96591866945584
 10
195.7690783820778
 20
-24.83143334683142
 10
181.9051635633521
 20
-26.7722095289607
  0
LWPOLYLINE
  5
13F
100
AcDbEntity
  8
0
  6
ByLayer
 62
  256
370
   -1
100
AcDbPolyline
 90
    4
 70
    1
 43
0
 10
198.8361007864058
 20
-10.2532476470191
 10
212.6966679115777
 20
-8.280574960382125
 10
214.6689390229403
 20
-22.14024278732827
 10
200.8093718962353
 20
-24.11291372297899
  0
LWPOLYLINE
  5
140
100
AcDbEntity
  8
0
  6
ByLayer
 62
  256
370
   -1
100
AcDbPolyline
 90
    4
 70
    1
 43
0
 10
219.6460000000001
 20
-7.615310468926139
 10
233.6480000000001
 20
-7.615310468926139
 10
233.6480000000001
 20
-21.61741046892625
 10
219.6460000000001
 20
-21.61741046892624
  0
LWPOLYLINE
  5
141
100
AcDbEntity
  8
0
  6
ByLayer
 62
  256
370
   -1
100
AcDbPolyline
 90
    4
 70
    1
 43
0
 10
238.6960000000001
 20
-7.615310468926139
 10
252.6960000000001
 20
-7.615310468926139
 10
252.6960000000001
 20
-21.61601046892625
 10
238.6960000000001
 20
-21.61601046892625
  0
LWPOLYLINE
  5
142
100
AcDbEntity
  8
0
  6
ByLayer
 62
  256
370
   -1
100
AcDbPolyline
 90
    4
 70
    1
 43
0
 10
257.7480000000002
 20
-7.615310468926139
 10
271.7480000000001
 20
-7.615310468926139
 10
271.7480000000001
 20
-21.61601046892625
 10
257.7480000000002
 20
-21.61601046892625
  0
LWPOLYLINE
  5
143
100
AcDbEntity
  8
0
  6
ByLayer
 62
  256
370
   -1
100
AcDbPolyline
 90
    4
 70
    1
 43
0
 10
161.101
 20
-15.55671046892619
 10
174.964
 20
-13.6083104689262
 10
176.912
 20
-27.47141046892624
 10
163.049
 20
-29.41981046892623
  0
LWPOLYLINE
  5
144
100
AcDbEntity
  8
0
  6
ByLayer
 62
  256
370
   -1
100
AcDbPolyline
 90
    4
 70
    1
 43
0
 10
158.635
 20
-68.51491046892617
 10
144.771
 20
-70.46341046892618
 10
142.822
 20
-56.60031046892619
 10
156.685
 20
-54.65051046892619
  0
LWPOLYLINE
  5
145
100
AcDbEntity
  8
0
  6
ByLayer
 62
  256
370
   -1
100
AcDbPolyline
 90
    4
 70
    1
 43
0
 10
126.43
 20
-70.46460046892616
 10
112.566
 20
-68.51610046892615
 10
114.514
 20
-54.65140046892615
 10
128.377
 20
-56.60160046892617
  0
LWPOLYLINE
  5
146
100
AcDbEntity
  8
0
  6
ByLayer
 62
  256
370
   -1
100
AcDbPolyline
 90
    4
 70
    1
 43
0
 10
149.602
 20
-36.40941046892623
 10
163.467
 20
-34.46071046892625
 10
165.4150000000001
 20
-48.32521046892622
 10
151.552
 20
-50.27251046892622
  0
LWPOLYLINE
  5
147
100
AcDbEntity
  8
0
  6
ByLayer
 62
  256
370
   -1
100
AcDbPolyline
 90
    4
 70
    1
 43
0
 10
260.6990000000001
 20
-46.09701046892623
 10
274.7009999999998
 20
-46.09701046892623
 10
274.7009999999999
 20
-60.09771046892616
 10
260.6990000000001
 20
-60.09771046892616
  0
LWPOLYLINE
  5
148
100
AcDbEntity
  8
0
  6
ByLayer
 62
  256
370
   -1
100
AcDbPolyline
 90
    4
 70
    1
 43
0
 10
196.3630000000001
 20
-63.21211046892618
 10
182.5
 20
-65.16081046892617
 10
180.552
 20
-51.29631046892621
 10
194.4150000000001
 20
-49.34931046892623
  0
LWPOLYLINE
  5
149
100
AcDbEntity
  8
0
  6
ByLayer
 62
  256
370
   -1
100
AcDbPolyline
 90
    4
 70
    1
 43
0
 10
117.5970739837496
 20
-30.73616026837193
 10
103.731804134695
 20
-28.79782212117018
 10
105.6707419549713
 20
-14.93205188006555
 10
119.5360118040258
 20
-16.87039002726733
  0
LWPOLYLINE
  5
14A
100
AcDbEntity
  8
0
  6
ByLayer
 62
  256
370
   -1
100
AcDbPolyline
 90
    4
 70
    1
 43
0
 10
79.85620643496668
 20
-25.44458635000809
 10
65.99108459983127
 20
-23.49565291429241
 10
67.93921815429825
 20
-9.632431129153165
 10
81.80233992693771
 20
-11.58036468987051
  0
LWPOLYLINE
  5
14B
100
AcDbEntity
  8
0
  6
ByLayer
 62
  256
370
   -1
100
AcDbPolyline
 90
    4
 70
    1
 43
0
 10
100.783
 20
-47.62380046892616
 10
86.92000000000004
 20
-45.67500046892615
 10
88.86900000000001
 20
-31.81050046892616
 10
102.733
 20
-33.75920046892615
  0
LWPOLYLINE
  5
14C
100
AcDbEntity
  8
0
  6
ByLayer
 62
  256
370
   -1
100
AcDbPolyline
 90
    4
 70
    1
 43
0
 10
88.70100000000002
 20
-65.16190046892616
 10
74.83600000000001
 20
-63.21340046892615
 10
76.78500000000005
 20
-49.35030046892615
 10
90.64899999999999
 20
-51.29760046892616
  0
CIRCLE
  5
14D
100
AcDbEntity
  8
0
  6
ByLayer
 62
  256
370
   -1
100
AcDbCircle
 10
279.9989999999997
 20
-20.29399999999999
 40
1.499999999999988
  0
CIRCLE
  5
14E
100
AcDbEntity
  8
0
  6
ByLayer
 62
  256
370
   -1
100
AcDbCircle
 10
279.9989999999997
 20
-8.793999999999986
 40
1.499999999999992
  0
CIRCLE
  5
14F
100
AcDbEntity
  8
0
  6
ByLayer
 62
  256
370
   -1
100
AcDbCircle
 10
279.9989999999997
 20
-14.54399999999998
 40
1.499999999999997
  0
ARC
  5
150
100
AcDbEntity
  8
0
  6
ByLayer
 62
  256
370
   -1
100
AcDbCircle
 10
-4.996003610813204e-016
 20
-2.999999999999988
 40
6.000000000000011
100
AcDbArc
 50
90
 51
180
  0
ARC
  5
151
100
AcDbEntity
  8
0
  6
ByLayer
 62
  256
370
   -1
100
AcDbCircle
 10
280.6069999999997
 20
-2.999999999999989
 40
6
100
AcDbArc
 50
0
 51
90
  0
LINE
  5
152
100
AcDbEntity
  8
0
  6
ByLayer
 62
  256
370
   -1
100
AcDbLine
 10
0
 20
3.000000000000024
 11
280.6069999999997
 21
3.000000000000011
  0
ARC
  5
153
100
AcDbEntity
  8
0
  6
ByLayer
 62
  256
370
   -1
100
AcDbCircle
 10
3.436140261214859e-014
 20
-83.64830046892614
 40
6
100
AcDbArc
 50
180
 51
270
  0
LINE
  5
154
100
AcDbEntity
  8
0
  6
ByLayer
 62
  256
370
   -1
100
AcDbLine
 10
-6.000000000000012
 20
-2.999999999999988
 11
-5.999999999999966
 21
-83.64829996797722
  0
ARC
  5
155
100
AcDbEntity
  8
0
  6
ByLayer
 62
  256
370
   -1
100
AcDbCircle
 10
280.6069999999997
 20
-83.64830046892614
 40
6
100
AcDbArc
 50
270
 51
0
  0
LINE
  5
156
100
AcDbEntity
  8
0
  6
ByLayer
 62
  256
370
   -1
100
AcDbLine
 10
286.6069999999997
 20
-3.000002685498
 11
286.6069999999997
 21
-83.64830046892614
  0
LINE
  5
157
100
AcDbEntity
  8
0
  6
ByLayer
 62
  256
370
   -1
100
AcDbLine
 10
125.3229269152793
 20
-100.1118004689262
 11
50.85084003912448
 21
-89.64830046892621
  0
LINE
  5
158
100
AcDbEntity
  8
0
  6
ByLayer
 62
  256
370
   -1
100
AcDbLine
 10
4.218847493575595e-014
 20
-89.64830046892621
 11
50.85084003912448
 21
-89.64830046892621
  0
LINE
  5
159
100
AcDbEntity
  8
0
  6
ByLayer
 62
  256
370
   -1
100
AcDbLine
 10
4.218847493575595e-014
 20
-89.64830046892614
 11
50.85084003912448
 21
-89.64830046892614
  0
CIRCLE
  5
15A
100
AcDbEntity
  8
0
  6
ByLayer
 62
  256
370
   -1
100
AcDbCircle
 10
3.436140261214859e-014
 20
-83.64830046892614
 40
1.5
  0
CIRCLE
  5
15B
100
AcDbEntity
  8
0
  6
ByLayer
 62
  256
370
   -1
100
AcDbCircle
 10
-4.996003610813204e-016
 20
-2.999999999999988
 40
1.5
  0
CIRCLE
  5
15C
100
AcDbEntity
  8
0
  6
ByLayer
 62
  256
370
   -1
100
AcDbCircle
 10
280.6069999999997
 20
-2.999999999999989
 40
1.5
  0
CIRCLE
  5
15D
100
AcDbEntity
  8
0
  6
ByLayer
 62
  256
370
   -1
100
AcDbCircle
 10
280.6069999999997
 20
-83.64830046892614
 40
1.5
  0
LINE
  5
15E
100
AcDbEntity
  8
0
  6
ByLayer
 62
  256
370
   -1
100
AcDbLine
 10
125.3229269152793
 20
-100.1118004689262
 11
145.8793353488189
 21
-100.1118004689262
  0
LINE
  5
15F
100
AcDbEntity
  8
0
  6
ByLayer
 62
  256
370
   -1
100
AcDbLine
 10
220.3106016268679
 20
-89.64830046892614
 11
145.8793353488189
 21
-100.1118004689262
  0
LINE
  5
160
100
AcDbEntity
  8
0
  6
ByLayer
 62
  256
370
   -1
100
AcDbLine
 10
220.3106016268679
 20
-89.64830046892614
 11
280.6069999999997
 21
-89.64830046892614
  0
ENDBLK
  5
58
330
56
100
AcDbEntity
  8
0
100
AcDbBlockEnd
  0
ENDSEC
  0
SECTION
  2
ENTITIES
  0
ARC
  5
161
100
AcDbEntity
  8
0
  6
ByLayer
 62
  256
370
   -1
100
AcDbCircle
 10
-421.4310000000037
 20
97.27020046892621
 40
6.00000000000199
100
AcDbArc
 50
360
 51
89.99995622245861
  0
ARC
  5
162
100
AcDbEntity
  8
0
  6
ByLayer
 62
  256
370
   -1
100
AcDbCircle
 10
-702.0380000000034
 20
97.27020046892619
 40
5.999999999999645
100
AcDbArc
 50
90
 51
180
  0
LINE
  5
163
100
AcDbEntity
  8
0
  6
ByLayer
 62
  256
370
   -1
100
AcDbLine
 10
-702.0380000138454
 20
10.62190046892623
 11
-651.1655000138454
 21
10.62190046892623
  0
LINE
  5
164
100
AcDbEntity
  8
0
  6
ByLayer
 62
  256
370
   -1
100
AcDbLine
 10
-651.1655000138454
 20
10.62190046892623
 11
-576.7169485522404
 21
0.1588389041282952
  0
LINE
  5
165
100
AcDbEntity
  8
0
  6
ByLayer
 62
  256
370
   -1
100
AcDbLine
 10
-421.4309973356773
 20
10.62189779076296
 11
-481.7189973356773
 21
10.62189779076296
  0
LINE
  5
166
100
AcDbEntity
  8
0
  6
ByLayer
 62
  256
370
   -1
100
AcDbLine
 10
-481.7189973356773
 20
10.62189779076296
 11
-556.1664595024066
 21
0.1589893163761111
  0
LINE
  5
167
100
AcDbEntity
  8
0
  6
ByLayer
 62
  256
370
   -1
100
AcDbLine
 10
-556.1664595024066
 20
0.1589893163761111
 11
-576.7169485522404
 21
0.1589893163761111
  0
ARC
  5
168
100
AcDbEntity
  8
0
  6
ByLayer
 62
  256
370
   -1
100
AcDbCircle
 10
-702.0380000000035
 20
16.62190046892623
 40
5.999999999999886
100
AcDbArc
 50
180
 51
270
  0
LINE
  5
169
100
AcDbEntity
  8
0
  6
ByLayer
 62
  256
370
   -1
100
AcDbLine
 10
-708.0380000000034
 20
97.2701908240825
 11
-708.0380000000033
 21
16.62190954984329
  0
ARC
  5
16A
100
AcDbEntity
  8
0
  6
ByLayer
 62
  256
370
   -1
100
AcDbCircle
 10
-420.9065000000299
 20
70.63595175948568
 40
1.587500000005515
100
AcDbArc
 50
90.00000000000206
 51
179.9998518074588
  0
ARC
  5
16B
100
AcDbEntity
  8
0
  6
ByLayer
 62
  256
370
   -1
100
AcDbCircle
 10
-420.2815000000301
 20
73.81095175948583
 40
1.587500000000034
100
AcDbArc
 50
270.000000000002
 51
5.129017145111655e-013
  0
LINE
  5
16C
100
AcDbEntity
  8
0
  6
ByLayer
 62
  256
370
   -1
100
AcDbLine
 10
-420.9065062411812
 20
72.2234517594858
 11
-420.2815000000301
 21
72.22345175948583
  0
LINE
  5
16D
100
AcDbEntity
  8
0
  6
ByLayer
 62
  256
370
   -1
100
AcDbLine
 10
-418.6940000000301
 20
73.81095175948586
 11
-418.6940000000301
 21
95.80869693240457
  0
ARC
  5
16E
100
AcDbEntity
  8
0
  6
ByLayer
 62
  256
370
   -1
100
AcDbCircle
 10
-420.2815000000301
 20
95.80870046894901
 40
1.587500000003917
100
AcDbArc
 50
0.000127640357828551
 51
90
  0
ARC
  5
16F
100
AcDbEntity
  8
0
  6
ByLayer
 62
  256
370
   -1
100
AcDbCircle
 10
-421.4310000000017
 20
16.62190046892623
 40
6.000000000000057
100
AcDbArc
 50
270.0000254424128
 51
0
  0
LINE
  5
170
100
AcDbEntity
  8
0
  6
ByLayer
 62
  256
370
   -1
100
AcDbLine
 10
-415.4310000000017
 20
97.27020046892621
 11
-415.4310000000016
 21
16.62190046892623
  0
ARC
  5
171
100
AcDbEntity
  8
0
  6
ByLayer
 62
  256
370
   -1
100
AcDbCircle
 10
-700.5765000000034
 20
95.80870046889257
 40
1.587499999999977
100
AcDbArc
 50
90
 51
180
  0
ARC
  5
172
100
AcDbEntity
  8
0
  6
ByLayer
 62
  256
370
   -1
100
AcDbCircle
 10
-700.5765000000034
 20
18.08340046892623
 40
1.58784708584304
100
AcDbArc
 50
178.801992178648
 51
270
  0
LINE
  5
173
100
AcDbEntity
  8
0
  6
ByLayer
 62
  256
370
   -1
100
AcDbLine
 10
-702.1640000000034
 20
18.11659863183184
 11
-702.1640000000034
 21
95.80870046889257
  0
LINE
  5
174
100
AcDbEntity
  8
0
  6
ByLayer
 62
  256
370
   -1
100
AcDbLine
 10
-650.7547499204893
 20
16.49590046892623
 11
-700.5433013286256
 21
16.49590046892623
  0
LINE
  5
175
100
AcDbEntity
  8
0
  6
ByLayer
 62
  256
370
   -1
100
AcDbLine
 10
-650.7547499204893
 20
16.49590046892623
 11
-576.3072686976382
 21
6.032989316376111
  0
LINE
  5
176
100
AcDbEntity
  8
0
  6
ByLayer
 62
  256
370
   -1
100
AcDbLine
 10
-556.5653341975934
 20
6.032989316376111
 11
-576.3072686976382
 21
6.032989316376111
  0
LINE
  5
177
100
AcDbEntity
  8
0
  6
ByLayer
 62
  256
370
   -1
100
AcDbLine
 10
-482.138259974461
 20
16.4958999999664
 11
-556.5653341975934
 21
6.032989316376111
  0
ARC
  5
178
100
AcDbEntity
  8
0
  6
ByLayer
 62
  256
370
   -1
100
AcDbCircle
 10
-424.0815083561933
 20
18.0833999999664
 40
1.587499999999977
100
AcDbArc
 50
270
 51
0
  0
LINE
  5
179
100
AcDbEntity
  8
0
  6
ByLayer
 62
  256
370
   -1
100
AcDbLine
 10
-422.4940000000301
 20
70.63595586547152
 11
-422.4940083561933
 21
18.0833999999664
  0
LINE
  5
17A
100
AcDbEntity
  8
0
  6
ByLayer
 62
  256
370
   -1
100
AcDbLine
 10
-424.0815083561933
 20
16.49589999996642
 11
-482.138259974461
 21
16.4958999999664
  0
CIRCLE
  5
17B
100
AcDbEntity
  8
0
  6
ByLayer
 62
  256
370
   -1
100
AcDbCircle
 10
-704.1634426570216
 20
14.50470944823874
 40
1.5
  0
CIRCLE
  5
17C
100
AcDbEntity
  8
0
  6
ByLayer
 62
  256
370
   -1
100
AcDbCircle
 10
-419.3071430722429
 20
14.50311927738045
 40
1.5
  0
CIRCLE
  5
17D
100
AcDbEntity
  8
0
  6
ByLayer
 62
  256
370
   -1
100
AcDbCircle
 10
-704.1598543688126
 20
99.3909866527659
 40
1.5
  0
CIRCLE
  5
17E
100
AcDbEntity
  8
0
  6
ByLayer
 62
  256
370
   -1
100
AcDbCircle
 10
-419.3096804668546
 20
99.39152162289611
 40
1.5
  0
LINE
  5
17F
100
AcDbEntity
  8
0
  6
ByLayer
 62
  256
370
   -1
100
AcDbLine
 10
-682.9630000000037
 20
103.2702004689261
 11
-682.9630000000037
 21
102.2490126983166
  0
ARC
  5
180
100
AcDbEntity
  8
0
  6
ByLayer
 62
  256
370
   -1
100
AcDbCircle
 10
-682.7045000000037
 20
100.6827004689262
 40
1.587499999999977
100
AcDbArc
 50
99.37146766554474
 51
180.0000000000005
  0
ARC
  5
181
100
AcDbEntity
  8
0
  6
ByLayer
 62
  256
370
   -1
100
AcDbCircle
 10
-685.8795000000035
 20
98.98370046889256
 40
1.587499999999864
100
AcDbArc
 50
270
 51
0
  0
LINE
  5
182
100
AcDbEntity
  8
0
  6
ByLayer
 62
  256
370
   -1
100
AcDbLine
 10
-684.2920000000037
 20
100.6827004689262
 11
-684.2920000000037
 21
98.98370046889256
  0
LINE
  5
183
100
AcDbEntity
  8
0
  6
ByLayer
 62
  256
370
   -1
100
AcDbLine
 10
-700.5765000000034
 20
97.39620046889254
 11
-685.8795000000035
 21
97.3962004688927
  0
LINE
  5
184
100
AcDbEntity
  8
0
  6
ByLayer
 62
  256
370
   -1
100
AcDbLine
 10
-669.9630000000037
 20
103.2702004689261
 11
-669.9630000000037
 21
102.2559137411549
  0
ARC
  5
185
100
AcDbEntity
  8
0
  6
ByLayer
 62
  256
370
   -1
100
AcDbCircle
 10
-670.1755000000037
 20
100.6827004689262
 40
1.587499999973736
100
AcDbArc
 50
1.025791004980607e-012
 51
82.30739576675469
  0
ARC
  5
186
100
AcDbEntity
  8
0
  6
ByLayer
 62
  256
370
   -1
100
AcDbCircle
 10
-667.0005000000037
 20
98.98370046894908
 40
1.587500000000091
100
AcDbArc
 50
180.0001518569075
 51
270
  0
LINE
  5
187
100
AcDbEntity
  8
0
  6
ByLayer
 62
  256
370
   -1
100
AcDbLine
 10
-668.58800000003
 20
100.6827004689262
 11
-668.5879999999983
 21
98.98369626143428
  0
LINE
  5
188
100
AcDbEntity
  8
0
  6
ByLayer
 62
  256
370
   -1
100
AcDbLine
 10
-702.0380000000034
 20
103.2702004689258
 11
-682.9630000000037
 21
103.2702004689261
  0
LINE
  5
189
100
AcDbEntity
  8
0
  6
ByLayer
 62
  256
370
   -1
100
AcDbLine
 10
-667.0005000000037
 20
97.39620046894899
 11
-420.2815000000301
 21
97.39620046895293
  0
LINE
  5
18A
100
AcDbEntity
  8
0
  6
ByLayer
 62
  256
370
   -1
100
AcDbLine
 10
-421.4309954156303
 20
103.2702004689264
 11
-669.9630000000037
 21
103.2702004689261
  0
ENDSEC
  0
SECTION
  2
OBJECTS
  0
DICTIONARY
  5
C
330
0
100
AcDbDictionary
281
    1
  3
ACAD_GROUP
350
D
  0
DICTIONARY
  5
D
330
C
100
AcDbDictionary
281
    1
  0
ENDSEC
  0
EOF
